<?xml version="1.0" encoding="utf-8"?>
<!-- Generator: Adobe Illustrator 19.2.1, SVG Export Plug-In . SVG Version: 6.00 Build 0)  -->
<svg version="1.1" id="Layer_1" xmlns="http://www.w3.org/2000/svg" xmlns:xlink="http://www.w3.org/1999/xlink" x="0px" y="0px"
	 viewBox="0 0 32 32" style="enable-background:new 0 0 32 32;" xml:space="preserve">
<title>REVicon_REVicon_labels_check_32px</title>
<path d="M16,0C7.2,0,0,7.2,0,16s7.2,16,16,16s16-7.2,16-16S24.8,0,16,0z M16,30.5C8,30.5,1.5,24,1.5,16S8,1.5,16,1.5S30.5,8,30.5,16
	C30.5,24,24,30.5,16,30.5z M22.4,10.8L14,19.1l-4.4-4.3c-0.4-0.4-1.1-0.3-1.4,0.1c-0.3,0.4-0.3,0.9,0,1.3l5,5c0.4,0.4,1,0.4,1.4,0
	l9.1-9.1c0.4-0.4,0.3-1.1-0.1-1.4C23.2,10.4,22.7,10.4,22.4,10.8L22.4,10.8z"/>
</svg>
