<svg id="Layer_1" data-name="Layer 1" xmlns="http://www.w3.org/2000/svg" viewBox="0 0 32 32"><title>REVicon_REVicon_labels_details_32px</title><path d="M16,0A16,16,0,1,0,32,16,16,16,0,0,0,16,0Zm0,30.5A14.5,14.5,0,1,1,30.5,16,14.52,14.52,0,0,1,16,30.5ZM19.4,7a7.29,7.29,0,0,0-3.19-.66,7,7,0,0,0-3.39.79,5.8,5.8,0,0,0-2.19,2,4.38,4.38,0,0,0-.74,2.32,1.21,1.21,0,0,0,.4.86,1.29,1.29,0,0,0,1,.4c.41,0,1-.13,1.33-1.21a6.19,6.19,0,0,1,1.24-2.29,3.14,3.14,0,0,1,2.39-.84,3.22,3.22,0,0,1,2.26.82,2.68,2.68,0,0,1,.9,2,2.39,2.39,0,0,1-.3,1.18,4.12,4.12,0,0,1-.69.91q-.38.38-1.23,1.12a20.44,20.44,0,0,0-1.49,1.42,4.48,4.48,0,0,0-.83,1.3,4.53,4.53,0,0,0-.31,1.76A1.38,1.38,0,0,0,14.87,20a1.22,1.22,0,0,0,.88.34,1.09,1.09,0,0,0,1.19-1.05c.1-.45.17-.76.22-.93a3.17,3.17,0,0,1,.23-.58,3.25,3.25,0,0,1,.45-.64,9.15,9.15,0,0,1,.74-.74c1.06-.95,1.81-1.63,2.22-2a5.63,5.63,0,0,0,1-1.35,3.7,3.7,0,0,0,.41-1.77,4.32,4.32,0,0,0-.73-2.41A5.08,5.08,0,0,0,19.4,7ZM15.9,22.25a1.57,1.57,0,0,0-1.15.46,1.49,1.49,0,0,0-.46,1.12A1.44,1.44,0,0,0,14.75,25,1.69,1.69,0,0,0,17,25a1.45,1.45,0,0,0,.46-1.16,1.55,1.55,0,0,0-1.57-1.57Z"/></svg>