<svg xmlns="http://www.w3.org/2000/svg" viewBox="0 203.1 612 387.9"><path fill="#FFF" d="M604.9 563.9c0 11-8.9 19.9-19.9 19.9H27.1c-11 0-19.9-8.9-19.9-19.9V230.1c0-11 8.9-19.9 19.9-19.9H585c11 0 19.9 8.9 19.9 19.9v333.8z"/><ellipse fill="#F58220" cx="305.5" cy="392.7" rx="30.4" ry="29.3"/><path fill="#D0D2D3" d="M585 590.9H27.1C12.2 590.9 0 578.8 0 563.8V230.1c0-14.9 12.1-27 27.1-27H585c14.9 0 27 12.1 27 27.1v333.7c0 14.9-12.1 27-27 27zM27.1 217.3c-7 0-12.8 5.7-12.8 12.8v333.7c0 7.1 5.7 12.8 12.8 12.8H585c7 0 12.8-5.7 12.8-12.8V230.1c0-7.1-5.7-12.8-12.8-12.8H27.1z"/><path fill="#F58220" d="M160.2 583.2h423.4c11.3 0 20.4-9.1 20.4-20.4V419.5c-40.7 25.8-193.9 114.6-443.8 163.7z"/><path fill="#071923" d="M132.1 363.2h-16.4v57.3H132c8.7 0 14.9-2.1 20.4-6.6 6.5-5.4 10.4-13.6 10.4-22 0-17-12.6-28.7-30.7-28.7zm13 43c-3.5 3.2-8.1 4.6-15.3 4.6h-3v-37.9h3c7.2 0 11.6 1.3 15.3 4.6 3.9 3.4 6.2 8.8 6.2 14.2 0 5.6-2.3 11.1-6.2 14.5zm22.9-43h11.2v57.3H168v-57.3zm38.4 22c-6.7-2.5-8.7-4.1-8.7-7.2 0-3.6 3.5-6.3 8.3-6.3 3.3 0 6.1 1.4 9 4.6l5.8-7.6c-4.8-4.2-10.6-6.4-16.8-6.4-10.1 0-17.9 7-17.9 16.4 0 7.9 3.6 11.9 14.1 15.7 4.4 1.5 6.6 2.6 7.7 3.3 2.2 1.5 3.4 3.5 3.4 5.9 0 4.7-3.7 8.1-8.7 8.1-5.3 0-9.6-2.6-12.2-7.6l-7.2 7c5.1 7.5 11.3 10.9 19.8 10.9 11.6 0 19.7-7.7 19.7-18.8.2-9.3-3.5-13.4-16.3-18zm20 6.7c0 16.8 13.2 29.9 30.2 29.9 4.8 0 8.9-.9 14-3.3v-13.1c-4.5 4.5-8.4 6.3-13.5 6.3-11.2 0-19.2-8.2-19.2-19.8 0-11 8.2-19.7 18.7-19.7 5.3 0 9.4 1.9 14 6.4v-13.1c-4.9-2.5-8.9-3.5-13.7-3.5-16.9-.1-30.5 13.2-30.5 29.9zm134.8 9.8l-15.3-38.5h-12.2l24.3 58.7h6l24.8-58.7h-12.1m17.1 57.3h31.7v-9.7H405v-15.5h19.7v-9.7H405v-12.7h20.5v-9.7h-31.7m75.9 16.9c0-10.7-7.4-16.9-20.3-16.9h-16.6v57.3h11.3v-23h1.5l15.5 23h13.7l-18-24.1c8.3-1.8 12.9-7.5 12.9-16.3zm-22.4 9.4h-3.2v-17.4h3.4c7 0 10.7 2.9 10.7 8.5 0 5.8-3.7 8.9-10.9 8.9z"/></svg>