<svg xmlns="http://www.w3.org/2000/svg" viewBox="-267 385 76.8 24">
<g>
	<g>
		<path d="M-241.1,401h1.8l-0.9-2.4L-241.1,401z M-232,392.4c-0.1,0-0.2-0.1-0.3-0.1c-0.2,0-0.4,0.1-0.5,0.2
			c-0.1,0.1-0.2,0.3-0.2,0.5h1.3C-231.7,392.7-231.8,392.5-232,392.4z M-226.3,393.8c0.2-0.3,0.3-0.6,0.3-1c0-0.4-0.1-0.7-0.3-1
			c-0.2-0.3-0.5-0.4-0.9-0.4h-0.6v2.7h0.6C-226.8,394.2-226.5,394.1-226.3,393.8z M-213.1,398.4c-1,0-1.7,0.8-1.7,1.9
			c0,1,0.7,1.8,1.7,1.8s1.7-0.8,1.7-1.8C-211.4,399.2-212.1,398.4-213.1,398.4z M-223,392.4c-0.2,0-0.4,0.1-0.5,0.2
			c-0.1,0.2-0.2,0.4-0.2,0.7c0,0.3,0.1,0.6,0.2,0.7c0.1,0.2,0.3,0.2,0.5,0.2s0.4-0.1,0.5-0.2c0.1-0.2,0.2-0.4,0.2-0.7
			c0-0.3-0.1-0.6-0.2-0.7S-222.8,392.4-223,392.4z M-235.3,392.4c-0.1,0-0.2-0.1-0.3-0.1c-0.2,0-0.4,0.1-0.5,0.2
			c-0.1,0.1-0.2,0.3-0.2,0.5h1.3C-235,392.7-235.1,392.5-235.3,392.4z M-226.7,398.4h-1v3.6h1c1.1,0,1.8-0.8,1.8-1.8
			C-225,399.2-225.6,398.4-226.7,398.4z M-219.6,398.4h-1.3v1.6h1.3c0.5,0,0.8-0.3,0.8-0.8S-219.1,398.4-219.6,398.4z M-201.7,394.3
			c0.2,0,0.3-0.1,0.5-0.2c0.2-0.2,0.2-0.4,0.2-0.6v-0.4c0-0.2-0.1-0.4-0.2-0.5s-0.3-0.2-0.5-0.2s-0.4,0.1-0.5,0.3
			c-0.1,0.2-0.2,0.4-0.2,0.7c0,0.3,0.1,0.5,0.2,0.7C-202.1,394.2-201.9,394.3-201.7,394.3z M-205.4,393.6c-0.4,0-0.6,0.1-0.6,0.4
			c0,0.1,0,0.2,0.1,0.3c0.1,0.1,0.2,0.1,0.4,0.1s0.4-0.1,0.5-0.2c0.1-0.1,0.2-0.3,0.2-0.5C-205,393.6-205.2,393.6-205.4,393.6z
			 M-190.2,406.6v-19.2c0-1.3-1-2.4-2.2-2.4h-72.4c-1.2,0-2.2,1.1-2.2,2.4v19.2c0,1.3,1,2.4,2.2,2.4h72.4
			C-191.2,409-190.2,407.9-190.2,406.6L-190.2,406.6z M-202.8,392.2c0.3-0.3,0.6-0.4,1-0.4s0.7,0.2,0.9,0.5v-1.7h0.7v4.3h-0.6
			l-0.1-0.5c-0.2,0.4-0.5,0.6-0.9,0.6s-0.7-0.1-1-0.4c-0.3-0.3-0.4-0.7-0.4-1.2C-203.2,392.9-203,392.5-202.8,392.2z M-212,390.6
			h0.7v4.3h-0.7V390.6z M-215.9,391.8h0.6l0.1,0.5c0.2-0.4,0.5-0.6,1-0.6c0.4,0,0.7,0.1,0.8,0.4c0.2,0.2,0.3,0.6,0.3,1v1.8h-0.7
			v-1.8c0-0.2-0.1-0.4-0.2-0.5c-0.1-0.1-0.3-0.2-0.5-0.2c-0.2,0-0.4,0.1-0.5,0.3c-0.1,0.2-0.2,0.4-0.2,0.8v1.4h-0.7
			C-215.9,394.9-215.9,391.8-215.9,391.8z M-228.5,390.8h1.3c0.6,0,1.1,0.2,1.5,0.6c0.4,0.4,0.6,0.9,0.6,1.5s-0.2,1.1-0.6,1.5
			c-0.4,0.4-0.9,0.6-1.5,0.6h-1.3V390.8z M-233.3,392.2c0.3-0.3,0.6-0.4,1-0.4c0.4,0,0.7,0.1,1,0.4c0.1,0.1,0.2,0.3,0.2,0.5
			c0.1,0.1,0.1,0.3,0.1,0.4s0,0.3,0,0.4h-2c0,0.2,0.1,0.4,0.2,0.6c0.1,0.2,0.3,0.2,0.5,0.2c0.3,0,0.5-0.1,0.5-0.4h0.8
			c-0.1,0.3-0.2,0.5-0.4,0.7c-0.2,0.2-0.5,0.3-0.9,0.3s-0.7-0.1-1-0.4s-0.4-0.7-0.4-1.2C-233.7,392.9-233.6,392.5-233.3,392.2z
			 M-239.3,391.8h0.7v0.6c0.2-0.4,0.5-0.7,0.8-0.7c0.1,0,0.2,0,0.3,0v0.7c-0.1,0-0.2,0-0.3,0c-0.5,0-0.7,0.3-0.7,1v1.3h-0.7v-2.9
			H-239.3z M-242.8,390.8h2.6v0.6h-1.8v1.1h1.7v0.6h-1.7v1.7h-0.7v-4H-242.8z M-253.6,391.9l-0.6-0.8c0,0,0,0,0-0.1h0.1l0.6,0.8
			c0.4-0.2,0.9-0.2,1.5-0.2s1.1,0.1,1.5,0.3l0.6-0.9c0,0,0,0,0.1,0c0,0,0.1,0.1,0,0.1l-0.6,0.8c1.6,0.7,1.7,2.5,1.7,2.5h-6.6
			C-255.3,394.5-255.2,392.7-253.6,391.9z M-255.7,398.6c0,0.4-0.3,0.7-0.7,0.7s-0.7-0.3-0.7-0.7v-3.2c0-0.4,0.3-0.7,0.7-0.7
			s0.7,0.3,0.7,0.7V398.6z M-248.6,397.6L-248.6,397.6v2.9c0,0.2-0.2,0.4-0.4,0.4h-0.9v1.8c0,0.4-0.3,0.7-0.7,0.7
			c-0.4,0-0.7-0.3-0.7-0.7v-1.8h-1.3v1.8c0,0.4-0.3,0.7-0.7,0.7c-0.4,0-0.7-0.3-0.7-0.7v-1.8h-0.9c-0.2,0-0.4-0.2-0.4-0.4v-2.9l0,0
			v-2.7h6.7C-248.6,394.9-248.6,397.6-248.6,397.6z M-246.8,398.6c0,0.4-0.3,0.7-0.7,0.7s-0.7-0.3-0.7-0.7v-3.2
			c0-0.4,0.3-0.7,0.7-0.7s0.7,0.3,0.7,0.7V398.6z M-238.7,403l-0.4-1h-2.4l-0.4,1h-1.4l2.2-5.6h1.5l2.2,5.6H-238.7z M-237,393.3
			c0-0.5,0.1-0.9,0.4-1.2c0.3-0.3,0.6-0.4,1-0.4c0.4,0,0.7,0.1,1,0.4c0.1,0.1,0.2,0.3,0.2,0.5c0.1,0.2,0.1,0.3,0.1,0.5
			c0,0.1,0,0.3,0,0.4h-2c0,0.2,0.1,0.4,0.2,0.6c0.1,0.2,0.3,0.2,0.5,0.2c0.3,0,0.5-0.1,0.5-0.4h0.7c-0.1,0.3-0.2,0.5-0.4,0.7
			c-0.2,0.3-0.5,0.4-0.8,0.4c-0.4,0-0.7-0.1-1-0.4C-236.9,394.2-237,393.8-237,393.3z M-230.9,403h-1.2l-2.7-3.7v3.7h-1.2v-5.6h1.2
			l2.6,3.5v-3.5h1.2v5.6H-230.9z M-226.7,403h-2.3v-5.6h2.2c1.8,0,3,1.1,3,2.8C-223.8,401.9-225,403-226.7,403z M-224.1,394.6
			c-0.3-0.3-0.4-0.7-0.4-1.2s0.1-0.9,0.4-1.2c0.3-0.3,0.6-0.4,1.1-0.4c0.2,0,0.4,0,0.6,0.1c0.1,0,0.3,0.1,0.4,0.2
			c0.3,0.3,0.4,0.7,0.4,1.2s-0.1,0.9-0.4,1.2s-0.6,0.4-1,0.4S-223.8,394.8-224.1,394.6z M-218.9,403l-1.1-2h-0.9v2h-1.2v-5.6h2.6
			c1.2,0,1.9,0.8,1.9,1.8s-0.6,1.5-1.2,1.7l1.3,2.1H-218.9z M-217.6,394.9h-0.7l-0.6-1.9l-0.6,1.8h-0.7l-1-3h0.8l0.6,2.2l0.6-2h0.7
			l0.6,2l0.6-2.2h0.7L-217.6,394.9z M-213.1,403.1c-1.7,0-2.9-1.2-2.9-2.9c0-1.7,1.2-2.9,2.9-2.9c1.7,0,2.9,1.2,2.9,2.9
			C-210.2,401.9-211.4,403.1-213.1,403.1z M-210,394.6c-0.3-0.3-0.4-0.7-0.4-1.2s0.1-0.9,0.4-1.2c0.3-0.3,0.6-0.4,1.1-0.4
			c0.2,0,0.4,0,0.6,0.1c0.1,0,0.3,0.1,0.4,0.2c0.3,0.3,0.4,0.7,0.4,1.2s-0.1,0.9-0.4,1.2c-0.3,0.3-0.6,0.4-1,0.4
			C-209.3,395-209.7,394.8-210,394.6z M-207.3,403h-1.2v-5.6h1.2V403z M-206.5,394.7c-0.2-0.2-0.3-0.4-0.3-0.7s0.1-0.5,0.3-0.7
			c0.2-0.2,0.5-0.2,0.9-0.2c0.2,0,0.5,0,0.8,0.1v-0.3c0-0.2,0-0.4-0.1-0.5c-0.1-0.1-0.2-0.2-0.4-0.2s-0.3,0-0.4,0.1
			c-0.1,0.1-0.2,0.2-0.2,0.3h-0.8c0-0.3,0.1-0.6,0.4-0.8c0.2-0.2,0.6-0.2,1-0.2c0.6,0,1,0.2,1.2,0.7c0.1,0.2,0.1,0.4,0.1,0.6v1.9
			h-0.6l-0.1-0.4c-0.2,0.3-0.5,0.5-0.9,0.5C-206,395-206.3,394.9-206.5,394.7z M-203.1,403h-2.2v-5.6h2.2c1.8,0,3,1.1,3,2.8
			C-200.1,401.9-201.3,403-203.1,403z M-208.9,392.4c-0.2,0-0.4,0.1-0.5,0.2c-0.1,0.2-0.2,0.4-0.2,0.7c0,0.3,0.1,0.6,0.2,0.7
			c0.1,0.2,0.3,0.2,0.5,0.2c0.2,0,0.4-0.1,0.5-0.2c0.1-0.2,0.2-0.4,0.2-0.7c0-0.3-0.1-0.6-0.2-0.7
			C-208.5,392.5-208.7,392.4-208.9,392.4z M-203.1,398.4h-1v3.6h1c1.1,0,1.8-0.8,1.8-1.8C-201.3,399.2-201.9,398.4-203.1,398.4z"></path>
	</g>
</g>
</svg>