<svg xmlns="http://www.w3.org/2000/svg" viewBox="0 0 96 30"><path d="M38.6 9.5c-.1-.1-.2-.1-.4-.1-.3 0-.5.1-.6.3-.1.2-.2.4-.3.7H39c0-.5-.1-.8-.4-.9zm28.9 0c-.3 0-.5.1-.7.3-.2.2-.3.5-.3.9s.1.7.2.9.4.3.7.3c.3 0 .5-.1.7-.3.2-.2.3-.5.3-.9s-.1-.7-.2-.9c-.2-.2-.4-.3-.7-.3zm-21.7 1.7c.3-.3.4-.7.4-1.2s-.1-.9-.4-1.2c-.3-.3-.7-.5-1.2-.5h-.7v3.4h.7c.5 0 .9-.1 1.2-.5zM31.4 17h-1.6v1.9h1.6c.6 0 1-.4 1-.9 0-.6-.4-1-1-1zm3.1-7.5c-.1-.1-.2-.1-.4-.1-.3 0-.5.1-.6.3-.1.2-.2.4-.3.7h1.6c.1-.5-.1-.8-.3-.9zm12 7.4c-1.3 0-2.1 1-2.1 2.3 0 1.3.8 2.3 2.1 2.3s2.1-1 2.1-2.3c0-1.3-.8-2.3-2.1-2.3zm3.4-7.4c-.3 0-.5.1-.7.3-.2.2-.3.5-.3.9s.1.7.2.9.4.3.7.3c.3 0 .5-.1.7-.3.2-.2.3-.5.3-.9s-.1-.7-.2-.9c-.2-.2-.5-.3-.7-.3zm26.6 2.3c.2 0 .4-.1.6-.3.2-.2.3-.4.3-.7v-.5c0-.3-.1-.5-.3-.7-.2-.2-.4-.2-.6-.2-.3 0-.5.1-.7.3-.2.2-.3.5-.3.8s.1.6.3.9c.2.3.4.4.7.4zm9.7 5.2h-1.6v1.9h1.6c.6 0 1-.4 1-.9.1-.6-.4-1-1-1zM96 27V3c0-1.7-1.2-3-2.8-3H2.8C1.2 0 0 1.4 0 3v24c0 1.7 1.2 3 2.8 3h90.5c1.5 0 2.7-1.3 2.7-3zM75.1 9.2c.3-.4.7-.5 1.2-.5s.8.2 1.1.6v-2h.9v5.4h-.8V12c-.2.5-.6.7-1.1.7-.5 0-.9-.2-1.2-.6-.3-.4-.5-.9-.5-1.5s.1-1 .4-1.4zm-2.6.3c-.1-.1-.3-.2-.5-.2s-.4 0-.6.1c-.1.1-.2.2-.2.4h-1c0-.4.2-.7.5-.9.3-.1.7-.2 1.3-.2.8 0 1.3.3 1.5.8.1.2.1.4.1.7v2.4h-.8l-.1-.5c-.2.4-.6.6-1.1.6-.5 0-.9-.1-1.1-.4-.3-.2-.4-.5-.4-.9s.1-.6.4-.8.7-.3 1.1-.3c.3 0 .7 0 1 .1V10c.1-.2 0-.3-.1-.5zM43 7.5h1.7c.8 0 1.4.2 1.9.7.5.5.7 1.1.7 1.9 0 .8-.2 1.4-.7 1.8-.5.5-1.1.7-1.9.7H43V7.5zm-6 1.7c.3-.4.8-.5 1.3-.5s.9.2 1.2.6l.3.6c.1.2.1.4.1.6v.5h-2.5c0 .3.1.6.2.8.1.2.4.3.6.3.4 0 .6-.2.7-.5h.9c-.1.4-.2.7-.5.9-.3.2-.7.3-1.1.3-.5 0-.9-.2-1.3-.5-.4-.4-.5-.9-.5-1.5.1-.7.2-1.2.6-1.6zm-7.6-.4h.9v.8c.2-.5.6-.8 1-.8.1 0 .2 0 .3.1v.9h-.4c-.6 0-.9.4-.9 1.3v1.7h-.9v-4zm-14.9-.6c.6-.6 1.6-1.2 2.4-1.2.1 1-.3 1.9-.9 2.6-.6.7-1.5 1.2-2.4 1.1-.1-.9.4-1.9.9-2.5zM19.1 21c-.7 1-1.3 1.9-2.4 2-1.1 0-1.4-.6-2.6-.6-1.2 0-1.6.6-2.6.6S9.7 22 9 21c-1.4-2-2.4-5.6-1-8.1.7-1.2 1.9-2 3.3-2 1 0 2 .7 2.6.7.6 0 1.8-.9 3.1-.7.5 0 2 .2 2.9 1.6-.1 0-1.7 1-1.7 3 0 2.4 2.1 3.2 2.1 3.2-.1.1-.4 1.2-1.2 2.3zm7.6 1.8h-1.3v-5.1h1.3v5.1zm-.7-5.7c-.4 0-.8-.4-.8-.8s.4-.8.8-.8.8.3.8.8-.4.8-.8.8zm2.1-6.7H26v2.2h-.9V7.5h3.2v.8H26v1.3h2.1v.8zm3.5 9.9h-1.8v2.5h-1.5v-7h3.3c1.5 0 2.4 1 2.4 2.3 0 1.1-.9 2.2-2.4 2.2zm1.2-8.2c-.4-.4-.5-.9-.5-1.5s.2-1.1.5-1.5c.3-.4.8-.5 1.3-.5s.9.2 1.2.6l.3.6c.1.2.1.4.1.6v.5h-2.5c0 .3.1.6.2.8.1.2.4.3.6.3.4 0 .6-.2.7-.5h.9c-.1.4-.2.7-.5.9-.3.2-.7.3-1.1.3-.4 0-.8-.2-1.2-.6zm8.7 10.7H40v-3h-3.3v3h-1.5v-7h1.5v2.8H40v-2.8h1.5v7zm5 .1c-2.1 0-3.7-1.5-3.7-3.6s1.6-3.6 3.7-3.6 3.7 1.5 3.7 3.6-1.6 3.6-3.7 3.6zm3.3-10.2c-.5 0-1-.2-1.3-.5-.4-.4-.5-.9-.5-1.5 0-.7.2-1.2.5-1.5.3-.3.8-.5 1.3-.5.3 0 .5 0 .7.1.3.1.5.2.6.4.4.4.5.9.5 1.5s-.2 1.1-.5 1.5c-.3.3-.7.5-1.3.5zm8 10.1h-1.4L53 18.2v4.6h-1.5v-7H53l3.3 4.4v-4.4h1.5v7zm-1.2-10.2h-.9l-.7-2.3-.7 2.3h-.9l-1.3-3.8h1l.8 2.7.7-2.5h.8l.7 2.5.8-2.7h.9l-1.2 3.8zm2.1-3.8h.8l.1.7c.3-.5.7-.8 1.2-.8s.8.2 1.1.5c.2.3.4.7.4 1.2v2.2h-.9v-2.2c0-.3-.1-.5-.2-.6s-.3-.2-.6-.2c-.2 0-.5.1-.6.3-.2.2-.3.5-.3 1v1.8h-.9V8.8zm5.7 8.2h-3.5v1.5h3.4v1.3h-3.4v1.6h3.5v1.3h-5v-7h5V17zm.1-4.4h-.9V7.2h.9v5.4zm1.6-.4c-.4-.4-.5-.9-.5-1.5 0-.7.2-1.2.5-1.5.3-.3.8-.5 1.3-.5.3 0 .5 0 .7.1.2.1.4.2.6.4.4.4.5.9.5 1.5s-.2 1.1-.5 1.5c-.3.3-.8.5-1.3.5s-.9-.2-1.3-.5zm7.6 10.6l-.4-1.2h-3l-.4 1.2h-1.7l2.7-7h1.9l2.7 7h-1.8zm5.9-2.5h-1.8v2.5h-1.5v-7h3.3c1.5 0 2.4 1 2.4 2.3 0 1.1-.9 2.2-2.4 2.2zm6.9 0h-1.8v2.5h-1.5v-7h3.3c1.5 0 2.4 1 2.4 2.3-.1 1.1-.9 2.2-2.4 2.2zM79.4 17h-1.6v1.9h1.6c.6 0 1-.4 1-.9 0-.6-.4-1-1-1zm-8.8 3.3h2.2l-1.1-3-1.1 3zm.5-8.8c0 .1.1.3.2.4.1.1.3.2.6.2s.5-.1.6-.3c.2-.2.3-.4.3-.6-.4-.2-.7-.2-1-.2-.5 0-.7.1-.7.5z"/></svg>