<svg id="Layer_1" xmlns="http://www.w3.org/2000/svg" viewBox="0 0 16 16"><style>.st0{fill:#010101;} .st1{fill-rule:evenodd;clip-rule:evenodd;fill:#FFFFFF;} .st2{fill-rule:evenodd;clip-rule:evenodd;fill:#144BA0;} .st3{fill:#FECF0C;} .st4{fill:#5B3C18;} .st5{fill:#FFFFFF;} .st6{fill:#D1D3D4;} .st7{fill:#0A67B2;} .st8{fill:#FAA634;} .st9{fill:#ED1C24;} .st10{fill:#FAA61A;} .st11{fill:#0078A9;} .st12{fill:#03A550;} .st13{fill:#0C72BA;} .st14{fill:#EB2227;} .st15{fill:#F58220;} .st16{fill:#14467A;} .st17{fill:#0078BF;} .st18{fill:#005189;} .st19{fill:#ED7220;} .st20{fill:#1E439B;} .st21{fill:#A7A9AC;}</style><path d="M14.7 2.3c-.8-.8-2-1.3-3.2-1.3s-2.3.4-3.1 1.3l-.4.4-.4-.4C6.8 1.4 5.6 1 4.5 1c-1.2 0-2.4.4-3.2 1.3C.5 3.1 0 4.2 0 5.4c0 1.2.5 2.3 1.3 3.1l6.3 6.3c.1.2.2.2.4.2s.3-.1.4-.2l6.3-6.3c.8-.8 1.3-2 1.3-3.2s-.5-2.2-1.3-3z"/></svg>