<svg id="Layer_1" data-name="Layer 1" xmlns="http://www.w3.org/2000/svg" viewBox="0 0 32 32"><title>icon</title><path d="M31.9,9.4a11.74,11.74,0,0,0-.74-3.88,7.84,7.84,0,0,0-1.85-2.83A7.84,7.84,0,0,0,26.48.84,11.75,11.75,0,0,0,22.6.1C20.89,0,20.35,0,16,0S11.11,0,9.4.1A11.75,11.75,0,0,0,5.52.84,7.84,7.84,0,0,0,2.69,2.69,7.84,7.84,0,0,0,.84,5.52,11.74,11.74,0,0,0,.1,9.4C0,11.11,0,11.65,0,16s0,4.89.1,6.6a11.74,11.74,0,0,0,.74,3.88,7.84,7.84,0,0,0,1.85,2.83,7.84,7.84,0,0,0,2.83,1.85,11.75,11.75,0,0,0,3.88.74C11.11,32,11.65,32,16,32s4.89,0,6.6-.1a11.75,11.75,0,0,0,3.88-.74,8.18,8.18,0,0,0,4.68-4.68,11.74,11.74,0,0,0,.74-3.88C32,20.89,32,20.35,32,16S32,11.11,31.9,9.4ZM29,22.47a8.85,8.85,0,0,1-.55,3,5.3,5.3,0,0,1-3,3,8.85,8.85,0,0,1-3,.55c-1.69.08-2.19,0.09-6.47,0.09s-4.78,0-6.47-.09a8.85,8.85,0,0,1-3-.55,5,5,0,0,1-1.84-1.2,5,5,0,0,1-1.2-1.84,8.86,8.86,0,0,1-.55-3C2.9,20.78,2.88,20.27,2.88,16s0-4.78.09-6.47a8.86,8.86,0,0,1,.55-3,5,5,0,0,1,1.2-1.84,5,5,0,0,1,1.84-1.2,8.85,8.85,0,0,1,3-.55C11.22,2.9,11.73,2.88,16,2.88s4.78,0,6.47.09a8.85,8.85,0,0,1,3,.55,5,5,0,0,1,1.84,1.2,5,5,0,0,1,1.2,1.84,8.85,8.85,0,0,1,.55,3c0.08,1.69.09,2.19,0.09,6.47S29.1,20.78,29,22.47ZM16,7.78A8.22,8.22,0,1,0,24.22,16,8.22,8.22,0,0,0,16,7.78Zm0,13.55A5.33,5.33,0,1,1,21.33,16,5.33,5.33,0,0,1,16,21.33ZM24.54,5.54a1.92,1.92,0,1,0,1.92,1.92A1.92,1.92,0,0,0,24.54,5.54Z"/></svg>