<svg xmlns="http://www.w3.org/2000/svg" viewBox="0.9 195 612 387.9"><path fill="#FFF" d="M605.8 555.8c0 11-8.9 19.9-19.9 19.9H28c-11 0-19.9-8.9-19.9-19.9V222c0-11 8.9-19.9 19.9-19.9h557.9c11 0 19.9 8.9 19.9 19.9v333.8z"/><path fill="#D0D2D3" d="M585.9 582.8H28C13.1 582.8.9 570.7.9 555.7V222c0-14.9 12.1-27 27.1-27h557.9c14.9 0 27 12.1 27 27.1v333.7c0 14.9-12.1 27-27 27zM28 209.2c-7 0-12.8 5.7-12.8 12.8v333.7c0 7.1 5.7 12.8 12.8 12.8h557.9c7 0 12.8-5.7 12.8-12.8V222c0-7.1-5.7-12.8-12.8-12.8H28z"/><g fill-rule="evenodd" clip-rule="evenodd"><circle fill="#FAB12F" cx="380.3" cy="389" r="109.7"/><circle fill="#EA2030" cx="233.3" cy="388.7" r="109.7"/><path fill="#FAB12F" d="M294.1 321.2h58.3v-5.9h-53.3l-5 5.9m-8.8 13.3h67.1v-6h-63.6l-3.5 6m-6.5 13.2h73.6v-6h-71l-2.6 6m-4.5 13.3h78.1v-6h-76.2l-1.9 6m2.6 64h75.7v-5.9h-77.5l1.8 5.9m5.6 13.3h70.1v-6h-72.9l2.8 6m7.9 13.2h62.2v-5.9h-66l3.8 5.9m10.8 13.3h51.4v-6H296l5.2 6m-29.5-90.6h80.7v-6h-79.6l-1.1 6m49.2 37.6h30.8v-6H322l-1.1 6m2.4-13.2h28.4v-6h-27.3l-1.1 6m-53.6-6h8v6H270l-.3-6"/><path fill="#FFF" d="M254.7 385.4c-2.7-.2-5.3-.9-8.1-.7-2.2.1-6.2.3-6.8 3.1-.6 3.1 3.7 4.4 5.8 5.1 2.7.9 5.5 1.8 7.2 4.3 1.6 2.3 1.6 5.4 1.3 8.1-.4 2.9-1.5 5.7-3.8 7.7-4.5 3.9-10.6 3.7-16.2 3.7-2.7 0-5.5-.2-8.1-.9-.7-.2-1.3-.4-1.9-.6-.7-.2-.4-.4-.3-1.1.4-2 .8-3.9 1.2-5.9.1-.5.2-.9.3-1.4 2.4.5 4.7 1.1 7.1 1.4 2.4.3 5.3.7 7.6-.1 2.3-.8 3.7-4.3 1.7-6.1-.9-.8-2.2-1.3-3.3-1.7-1.2-.5-2.5-.9-3.7-1.5-2.3-1-4.5-2.5-5.6-4.9-1.1-2.5-1-5.3-.5-8 .5-2.5 1.6-5 3.7-6.7 2-1.6 4.6-2.4 7-2.8 5.1-.8 10.5-.6 15.6.3.6.1 1.1.2 1.7.3-.6 2.8-1.2 5.6-1.9 8.4zm8.8-17.5h10.3l-1.5 9h6.2c-.2 1.6-.5 3.1-.7 4.7-.2 1-.3 1.9-.5 2.9-.1.4 0 .6-.3.8-.2.1-.7 0-.9 0h-1.6c-1 0-2.1-.1-3.1-.1-.3 0-.5-.1-.7.1-.2.2-.2 1-.2 1.3-.7 3.9-1.3 7.8-2 11.8-.3 1.9-.6 3.7-1 5.6-.1.8-.4 1.7-.4 2.6.1 1.8 2.2 2.2 3.6 2.3 1.5.2 3.1-.1 4.5-.7-.2 1.2-.4 2.4-.7 3.5-.1.8-.3 1.6-.4 2.4-.1.3-.1.8-.2 1-.5.6-1.9 1-2.7 1.2-1.1.2-2.2.4-3.3.5-2.2.2-4.6 0-6.8-.4-2.3-.5-4.3-1.6-4.6-4.1-.2-1.4 0-2.9.3-4.3.3-1.9.7-3.8 1-5.8 1.2-6.6 2.3-13.3 3.5-19.9l2.4-13.8c-.2-.5-.2-.6-.2-.6zM374.9 379c-3.9-2.1-8.3-3-12.7-2.6-4.5.4-8.3 2.9-10.3 7-2 4-3.4 8.5-3 13.1.4 4.7 3.3 8.6 8 9.7 4 1 9 1.2 12.6-1.4.5-.3.9-.7 1.3-1.1l-1.2 6.9c-.1.9-.1 2.1-.5 2.9-.3.6-1.2 1.2-1.8 1.5-3.4 1.8-8 1.5-11.7 1.3-4-.2-7.9-1.4-11.1-4-3.3-2.7-5.6-6.3-6.6-10.5-1-4-.7-8.3.1-12.3.8-3.8 1.9-7.5 3.7-11 1.8-3.5 4.5-6.6 7.8-8.7 3.3-2.1 7.2-3.1 11.1-3.5 4-.4 8 0 11.9 1 1 .2 1.9.5 2.8.9.4.1.8.2 1.2.4.4.2.3.1.3.5-.1 1.1-.4 2.2-.6 3.3-.3 1.5-.5 3-.8 4.5-.2.7-.3 1.4-.5 2.1zm91.2 37.5h-10.3c.1-.8.3-1.6.4-2.3.1-.7.4-1.4.3-2.1-3.5 4.3-9 5.9-14.3 4.6-5.5-1.4-8.7-6.8-9.7-12.1-1-5.2-.1-10.9 2.2-15.7 2.4-5 6.3-9.2 11.6-11.1 4.9-1.7 11.1-.9 14.4 3.4.4.5.7 1 1 1.5.6-3.5 1.3-7.1 1.9-10.6.2-.9.3-1.8.5-2.7 0-.2.1-1.1.2-1.2.2-.1 1 0 1.2 0h8.8c-.9 5.5-1.9 10.9-2.8 16.4l-4.5 26.1c-.2 1.8-.5 3.8-.9 5.8z"/><path fill="#FAB12F" d="M449.4 407.5c4.1-.3 7-2.9 8.6-6.6 1.5-3.4 1.9-7.6.7-11.2-.6-1.8-1.9-3.5-3.8-3.9-1.8-.4-3.9.1-5.4 1.2-3 2.2-4.6 6.1-5.2 9.7-.3 2.2-.2 4.7.6 6.8.4 1 .9 2 1.7 2.7.8.9 1.7 1.1 2.8 1.3z"/><path fill="#FFF" d="M221.9 408.3c-.5 2.5-.9 5-1.4 7.6-.2.9-.3.7-1.2.7H211c.3-1.5.3-3 .7-4.5-3.8 4.4-10.9 6.1-16.4 4.5-3-.9-5.3-2.9-6.5-5.8-1.1-2.8-1-6.1-.1-8.9 2-6 7.5-9.3 13.5-10 2.8-.4 5.7-.7 8.5-.6.7 0 1.5 0 2.2.1.2 0 .8.2 1 .1.2-.1.3-.7.3-.9.4-1.4.3-2.7-.8-3.9-2-2.2-5.8-1.7-8.5-1.6-3 .2-6.2.4-9.1 1.3-.7.2-1.3.4-1.9.8l2.1-7.2c.1-.5.2-1 .4-1.4.2-.4.2-.4.8-.6 1-.4 1.9-.6 2.9-.8 4.1-.9 8.5-.8 12.7-.6 4 .2 8.3 1.7 10.9 4.9 1.4 1.6 2 3.8 1.9 5.9-.1 1.5-.5 3.1-.8 4.6-.8 5.3-1.8 10.8-2.9 16.3z"/><path fill="#EA2030" d="M213 398.6c-.1-1.5-6-.3-6.9-.1-2.2.6-4.9 2-5.9 4.1-1.2 2.3-.3 5.4 2.6 5.6 2.5.2 5.3-.5 7.3-2.1 2.1-1.8 2.4-4.8 2.9-7.5z"/><path fill="#FFF" d="M144 416.5h-10.1l8.4-48.6h17.5l1.7 28.8 12.1-28.8h18.3l-8.6 48.6h-10.1l6.4-36.4h-.4l-15.1 36.4h-11.3l-.1-1.5-1.9-33.1-.1-1.8h-.6m255.6 28.2c-.5 2.5-.9 5-1.4 7.6-.2.9-.3.7-1.2.7h-8.3c.1-1.4-.1-2.9.2-4.3-3.9 4.5-11.1 6-16.6 4-5.9-2.1-7.5-9.1-5.7-14.6 1.9-5.9 7.6-9.3 13.6-9.9 2.8-.3 5.7-.7 8.5-.5.7 0 1.4 0 2.1.1.2 0 .8.2 1 .1.2-.1.2-.7.2-.9.2-1.5.2-2.7-.9-3.8-1.1-1.2-2.5-1.5-4-1.5-1.5-.1-3-.1-4.5 0-3 .2-6.1.4-8.9 1.3-.7.2-1.2.4-1.8.8l2.1-7.2c.1-.5.2-1 .4-1.4.2-.4.2-.4.7-.6.9-.4 1.9-.6 2.9-.8 4.1-.8 8.4-.8 12.6-.6 4 .2 8.4 1.7 11 4.9 1.4 1.6 2.1 3.8 1.9 5.9-.1 1.5-.5 3.1-.8 4.6-.9 5.1-2 10.6-3.1 16.1z"/><path fill="#FAB12F" d="M396.8 398.6c-.3-1.6-5.7-.3-6.7-.1-2.3.5-4.9 1.8-5.9 4s-.5 5.4 2.3 5.7c2.5.3 5.3-.5 7.3-2 2.4-1.8 2.7-4.7 3-7.6z"/><path fill="#FFF" d="M408.5 416.5h9.7c.5 0 .6.1.8-.2.3-.4.2-1.4.3-1.9l.6-3.3c.5-2.7 1-5.5 1.5-8.2.6-3.3.9-6.9 2-10.1 1.3-3.8 4.3-6 8.2-6.7.6-.1 1.1-.2 1.8-.2.3 0 1.1.1 1.3 0 .3-.3.4-1.9.5-2.3.4-2.4.8-4.8 1.3-7.2-2.5.2-4.7.7-6.8 2.1-1.9 1.3-3.4 3.1-4.7 5 .4-2.2.7-4.5 1.1-6.7h-8.3c-.4 0-1.7-.2-2 0-.3.2-.3 1-.3 1.3-.2 1.4-.5 2.7-.7 4.1-1.6 8.9-3.1 17.8-4.7 26.8-.7 2.5-1.2 5-1.6 7.5zm-98.1 0h10c.5 0 .5.1.7-.3.3-.5.2-1.4.3-2l.6-3.6c.5-2.9 1-5.9 1.5-8.8.3-2 .7-4 1-6 .2-1.5.5-2.9 1.1-4.3 1.6-3.4 5.8-5.1 9.4-4.9.4 0 .7.2.9 0 .2-.3.3-1.1.3-1.4.2-1 .5-2 .8-2.9.7-2.1 1.5-4 2.8-5.7-4.1-1-8.4 1-11 4.1-.8.9-1.5 1.9-2.2 2.9.4-2.2.9-4.5 1.3-6.7h-8.3c-.5 0-1.8-.2-2.2 0-.3.2-.3.9-.3 1.2-.2 1.3-.5 2.7-.7 4-1.6 9-3.1 17.9-4.7 26.9-.4 2.5-.8 5-1.3 7.5zm1.2-27.9c-.5-3.8-1.6-7.1-4.6-9.5-2.8-2.2-6.5-3-10-3.1-3.6-.1-7.3.5-10.5 2.1-3 1.5-5.6 4-7.3 6.9-1.8 3.1-2.8 6.7-3.1 10.2-.3 3.5-.3 7.2.9 10.5 2.6 7.1 9.9 10.1 16.9 10.6 3.3.2 6.9.2 10.1-.5 1-.2 3.6-.8 3.9-1.8.3-1 .3-2.1.5-3.1l.6-3.9.3-1.8c-1.8 1-3.6 2-5.6 2.5-2 .5-4 .6-6.1.6-1.9-.1-4-.2-5.8-.9-1.8-.7-3.3-2.1-4.3-3.8-.5-.8-.8-1.7-1-2.7 0-.4-.2-1.1 0-1.4.2-.4-.1-.1.3-.2.6-.2 1.5 0 2.1 0h20.3c.2 0 1.2.1 1.3 0 .2-.2.1-1.7.2-2 .1-.5.2-1 .3-1.6.5-2.4.6-4.7.6-7.1zm-10.1 3.4H288c.1-2.8 2.2-6.1 4.8-7.2 2.8-1.2 6.2-.4 7.9 2.2.9 1.5 1 3.3.8 5z"/></g></svg>