<?xml version="1.0" encoding="utf-8"?>
<!-- Generator: Adobe Illustrator 21.0.0, SVG Export Plug-In . SVG Version: 6.00 Build 0)  -->
<svg version="1.1" id="Layer_1" xmlns="http://www.w3.org/2000/svg" xmlns:xlink="http://www.w3.org/1999/xlink" x="0px" y="0px"
	 viewBox="0 0 102.7 64" style="enable-background:new 0 0 102.7 64;" xml:space="preserve">
<title>icon</title>
<path d="M90.8,23.5c-1.7-0.8-3.6-1.1-5.5-1c-1.2,0-2.5,0.1-3.7,0.3c-0.9,0.1-1,0.2-1.6,0.3c-0.7,0.2-1.2,0.7-1.3,1.4L78.4,26
	c-0.2,1,0.3,0.9,0.6,0.9c0.6-0.2,1.2-0.4,1.8-0.5c0.9-0.2,1.9-0.3,2.9-0.3c0.9,0,1.9,0.1,2.8,0.4c0.6,0.2,1,0.8,0.9,1.4
	c0,0.1,0,0.3-0.1,0.4c-0.1,0.2-0.3,0.3-0.4,0.3c-1.8,0.1-3,0.3-4.5,0.5c-1.3,0.2-2.7,0.5-3.9,1c-1.1,0.4-2,1.2-2.6,2.1
	c-0.6,1-0.9,2.1-0.9,3.2c0,1.1,0.4,2.2,1.2,2.9c0.9,0.8,2.1,1.2,3.2,1.1c0.6,0,1.3,0,1.9-0.2c0.5-0.1,1-0.3,1.5-0.5
	c0.4-0.2,0.9-0.4,1.3-0.7l1.2-0.8l0,0l-0.1,0.5l0,0c-0.2,0.5,0.1,1,0.5,1.2c0.1,0,0.2,0.1,0.3,0.1h2.8l0,0c0.6-0.1,1.1-0.5,1.3-1.2
	l2.3-9.7c0.1-0.3,0.1-0.5,0.1-0.8c0-0.2,0-0.5,0.1-0.7C92.6,25.2,91.9,24.1,90.8,23.5z M85.4,35c-0.4,0.2-0.8,0.4-1.2,0.6
	c-0.5,0.2-1,0.3-1.6,0.3c-0.6,0-1.2-0.1-1.7-0.3c-0.4-0.2-0.6-0.7-0.6-1.1c0-0.5,0.1-1.1,0.4-1.5c0.3-0.4,0.8-0.7,1.3-0.9
	c0.7-0.2,1.3-0.4,2-0.5c0.7-0.1,2.1-0.2,2.3-0.2s0.3-0.1,0.2,0.4c0,0.2-0.4,1.8-0.6,2.6C85.8,34.6,85.6,34.8,85.4,35z"/>
<path d="M52.4,22.7c-0.8,0.1-1.5,0.5-1.9,1.2c0,0-4.4,7.5-4.8,8.3c-0.2,0.4-0.5,0.2-0.5,0L43.8,24c-0.2-0.7-0.9-1.2-1.7-1.2h-2.7
	c-0.5,0-0.9,0.3-1,0.8c0,0.1,0,0.2,0,0.3c0,0,2.1,11.9,2.5,14.6c0.2,1.5,0,1.8,0,1.8l-2.7,4.7c-0.4,0.6-0.2,1.2,0.5,1.2h3.2
	c0.8-0.1,1.5-0.5,1.9-1.2L56,24.5c0,0,1.2-1.8,0.1-1.8C55.4,22.7,52.4,22.7,52.4,22.7"/>
<path d="M13.9,26.9c-1.1,0.7-2.5,1.1-3.9,1H9.3c-0.5,0-0.9-0.3-1-0.8c0-0.1,0-0.2,0-0.3l0.9-4c0.2-0.7,0.8-1.1,1.5-1.2h1
	c0.9-0.1,1.8,0.1,2.7,0.6c0.6,0.4,0.9,1.1,0.9,1.8C15.3,25.1,14.8,26.2,13.9,26.9 M20.5,20.8c-0.4-0.7-1-1.3-1.7-1.8
	c-0.8-0.5-1.7-0.8-2.7-1c-1.2-0.2-2.4-0.3-3.6-0.3H6.2c-0.7,0-1.3,0.5-1.5,1.2L0.4,37.6c-0.1,0.5,0.1,1,0.6,1.1c0.1,0,0.2,0,0.3,0
	h3.1c0.7,0,1.3-0.5,1.5-1.2l1.1-4.5c0.2-0.7,0.8-1.1,1.5-1.2h0.9c3.7,0,6.7-0.8,8.7-2.3c2-1.4,3.2-3.6,3.1-6.1
	C21.1,22.6,20.9,21.7,20.5,20.8"/>
<path d="M69.5,27c-1.1,0.7-2.5,1.1-3.9,1h-0.8c-0.5,0-0.9-0.4-1-0.9c0-0.1,0-0.2,0-0.3l0.9-4c0.2-0.7,0.8-1.1,1.5-1.2h1
	c0.9-0.1,1.8,0.2,2.7,0.6c0.6,0.4,0.9,1.1,0.9,1.8C70.9,25.2,70.4,26.3,69.5,27 M76.1,20.9c-0.4-0.7-1-1.4-1.7-1.8
	c-0.8-0.5-1.7-0.8-2.7-1c-1.2-0.2-2.4-0.3-3.6-0.3h-6.4c-0.7,0-1.3,0.5-1.5,1.2L56,37.7c-0.1,0.5,0.1,1,0.6,1.1c0.1,0,0.2,0,0.3,0
	H60c0.7,0,1.3-0.5,1.5-1.2l1-4.5c0.2-0.7,0.8-1.1,1.5-1.2h0.9c3.7,0,6.7-0.8,8.7-2.3c2-1.4,3.2-3.7,3.1-6.1
	C76.7,22.7,76.5,21.7,76.1,20.9"/>
<path d="M35.2,23.5c-1.7-0.8-3.6-1.1-5.5-1c-1.2,0-2.5,0.1-3.7,0.3c-0.9,0.1-1,0.2-1.6,0.3c-0.7,0.2-1.2,0.7-1.3,1.4L22.8,26
	c-0.2,1,0.4,0.9,0.6,0.9c0.6-0.2,1.2-0.4,1.8-0.5c0.9-0.2,1.9-0.3,2.9-0.3c0.9,0,1.9,0.1,2.8,0.4c0.6,0.2,0.9,0.8,0.9,1.4
	c0,0.1,0,0.3,0,0.4c-0.1,0.2-0.3,0.3-0.4,0.3c-1.8,0.1-3,0.3-4.5,0.5c-1.4,0.2-2.7,0.5-3.9,1c-1.1,0.4-2,1.2-2.6,2.1
	c-0.6,1-0.9,2.1-0.9,3.2c0,1.1,0.4,2.2,1.2,2.9c0.9,0.8,2.1,1.2,3.2,1.1c0.6,0,1.3,0,1.9-0.2c0.5-0.1,1-0.3,1.5-0.5
	c0.4-0.2,0.9-0.4,1.3-0.7l1.1-0.8l0,0l-0.1,0.5l0,0c-0.1,0.5,0.1,1,0.6,1.1c0.1,0,0.1,0,0.2,0h2.9l0,0c0.6-0.1,1.1-0.5,1.3-1.2
	l2.3-9.6c0.1-0.3,0.1-0.5,0.1-0.8c0-0.2,0.1-0.5,0.1-0.7C37.1,25.2,36.4,24.1,35.2,23.5z M29.8,35c-0.4,0.2-0.8,0.4-1.2,0.6
	c-0.5,0.2-1,0.3-1.6,0.3c-0.6,0-1.2-0.1-1.7-0.3c-0.4-0.2-0.6-0.7-0.6-1.1c0-0.5,0.1-1.1,0.5-1.5c0.4-0.4,0.8-0.7,1.3-0.9
	c0.7-0.2,1.3-0.4,2-0.5c0.7-0.1,2.1-0.2,2.3-0.2s0.3-0.1,0.2,0.4c0,0.2-0.4,1.8-0.6,2.6C30.2,34.6,30,34.8,29.8,35z"/>
<path d="M101.4,18h-2.8c-0.6,0-1.2,0.4-1.4,1c0,0,0,0.1,0,0.1L97,19.8L93.2,37c-0.1,0.4-0.2,0.7-0.2,0.7l0,0c-0.1,0.5,0.2,1,0.6,1.1
	c0.1,0,0.1,0,0.2,0l0,0h2.8c0.7,0,1.2-0.5,1.4-1.1c0,0,0-0.1,0-0.1l4.1-18.6l0,0c0.1-0.5-0.2-1-0.7-1.1C101.5,18,101.5,18,101.4,18z
	"/>
</svg>
