<svg xmlns="http://www.w3.org/2000/svg" viewBox="0.9 195 612 387.9"><path fill="#FFF" d="M605.8 555.8c0 11-8.9 19.9-19.9 19.9H28c-11 0-19.9-8.9-19.9-19.9V222c0-11 8.9-19.9 19.9-19.9h557.9c11 0 19.9 8.9 19.9 19.9v333.8z"/><path fill="#D0D2D3" d="M585.9 582.8H28C13.1 582.8.9 570.7.9 555.7V222c0-14.9 12.1-27 27.1-27h557.9c14.9 0 27 12.1 27 27.1v333.7c0 14.9-12.1 27-27 27zM28 209.2c-7 0-12.8 5.7-12.8 12.8v333.7c0 7.1 5.7 12.8 12.8 12.8h557.9c7 0 12.8-5.7 12.8-12.8V222c0-7.1-5.7-12.8-12.8-12.8H28z"/><path fill="#336698" d="M468.7 354c-4.8-2.7-12.2-4-22.4-4-5 0-10.1.4-15.2 1.2-3.7.6-4.1.7-6.4 1.2-4.8 1-5.5 5.8-5.5 5.8l-1.5 6.3c-.9 4 1.4 3.9 2.4 3.5 2.1-.6 3.2-1.3 7.5-2.2 4.1-.9 8.3-1.6 11.8-1.6 5 0 8.8.6 11.4 1.6 2.5 1.1 3.8 3 3.8 5.7 0 .6 0 1.2-.2 1.8-.2.5-.6 1-1.8 1.1-7.2.4-12.3 1.1-18.5 2-6.1.9-11.5 2.3-15.9 4.4-4.8 2.1-8.3 4.9-10.8 8.5-2.4 3.6-3.6 8-3.6 13.1 0 4.9 1.7 8.8 5.1 11.9 3.4 3 7.9 4.5 13.2 4.5 3.4 0 6-.3 7.9-.7 1.9-.5 3.9-1.1 6-2.1 1.6-.7 3.3-1.6 5.2-2.9 1.8-1.2 3.1-2.1 4.7-3.2l.1.1-.5 2c-.5 2.4.9 4.5 3.3 4.7h11.7c.1 0 .1 0 .2-.1 2.5-.3 4.8-2.3 5.4-4.7l9.2-39.5c.2-.9.4-2 .5-3.2.1-1.2.3-2.3.2-3-.1-5.4-2.5-9.5-7.3-12.2zm-22.2 47.1c-1.6 1-3.2 1.8-4.9 2.5-2.3.9-4.5 1.4-6.5 1.4-3.1 0-5.5-.4-7.1-1.4-1.6-.9-2.5-2.5-2.4-4.7 0-2.6.6-4.6 1.8-6.1 1.2-1.5 3.1-2.7 5.4-3.6 2.3-.8 5.1-1.4 8.3-1.9 2.9-.4 8.5-1 9.2-1 .7 0 1.2-.4.9 1.5-.1.8-1.8 7.5-2.5 10.6-.4 1.1-1.6 2.4-2.2 2.7z"/><path fill="#1C3664" d="M311.1 350.9c-2.7 0-6.2 2.2-7.9 4.8 0 0-18 30.8-19.7 33.9-1 1.7-1.9.6-2.1 0-.1-.8-5.6-33.7-5.6-33.7-.6-2.6-3.4-4.9-6.9-4.9h-11.2c-2.7 0-4.4 2.2-3.8 4.8 0 0 8.6 48.6 10.2 60 .8 6.3-.1 7.4-.1 7.4l-11.1 19.4c-1.6 2.6-.7 4.8 2 4.8h13c2.7 0 6.2-2.1 7.9-4.8l50-84.5s4.8-7.2.4-7.2c-3 .1-15.1 0-15.1 0m-157.7 17.2c-3.8 2.8-9 4.2-15.8 4.2h-3.1c-2.7 0-4.4-2.2-3.8-4.8l3.8-16.3c.6-2.6 3.3-4.8 6-4.8h4.1c4.8 0 8.4.8 10.9 2.5 2.4 1.6 3.7 4.1 3.6 7.5 0 5-1.9 8.9-5.7 11.7m27.1-25.1c-1.6-3-3.9-5.5-6.9-7.4-3.1-1.9-6.7-3.2-10.9-4-4.2-.8-9.1-1.1-14.8-1.2h-26.2c-2.7 0-5.4 2.2-6 4.8L98 412c-.6 2.6 1.1 4.8 3.8 4.8h12.6c2.7 0 5.4-2.1 6-4.8l4.3-18.6c.6-2.6 3.3-4.8 6-4.8h3.6c15.3 0 27.2-3.2 35.8-9.4 8.5-6.3 12.8-14.6 12.8-24.9 0-4.5-.8-8.3-2.4-11.3"/><path fill="#336698" d="M381.2 368.4c-3.8 2.7-9 4.1-15.8 4.1h-3.1c-2.7 0-4.4-2.2-3.8-4.8l3.8-16.3c.6-2.6 3.3-4.8 6-4.7h4.1c4.8 0 8.4.8 10.9 2.4 2.4 1.6 3.6 4.1 3.6 7.5-.1 5.1-2 9-5.7 11.8m27-25.1c-1.6-3-3.9-5.5-6.9-7.4-3.1-1.9-6.7-3.2-10.9-4-4.2-.7-9.1-1.1-14.8-1.2h-26.2c-2.7 0-5.4 2.2-6 4.8l-17.6 76.8c-.6 2.6 1.1 4.8 3.8 4.8h12.6c2.7 0 5.4-2.1 6-4.8l4.3-18.6c.6-2.6 3.3-4.8 6-4.8h3.6c15.4 0 27.3-3.2 35.8-9.4 8.5-6.3 12.8-14.6 12.8-24.9-.1-4.5-.9-8.3-2.5-11.3"/><path fill="#1C3664" d="M240.9 354c-4.8-2.7-12.2-4-22.4-4-5 0-10.1.4-15.2 1.2-3.7.6-4.1.7-6.4 1.2-4.8 1-5.5 5.8-5.5 5.8l-1.5 6.3c-.9 4 1.4 3.9 2.5 3.5 2.1-.6 3.2-1.2 7.5-2.2 4.1-.9 8.3-1.6 11.8-1.6 5 0 8.8.5 11.4 1.6 2.5 1.1 3.8 3 3.8 5.7 0 .6 0 1.3-.2 1.8s-.6 1-1.8 1.1c-7.2.4-12.3 1.1-18.5 2-6.1.9-11.5 2.3-15.9 4.4-4.8 2.1-8.3 4.9-10.8 8.5-2.4 3.6-3.6 8-3.6 13.1 0 4.9 1.7 8.8 5.1 11.9 3.4 3 7.9 4.5 13.2 4.5 3.4 0 6-.3 7.9-.7 1.9-.5 3.9-1.1 6-2.1 1.6-.7 3.3-1.6 5.2-2.9 1.8-1.2 3.1-2.1 4.7-3.2l.1.1-.5 2v.1c-.5 2.4.9 4.5 3.3 4.7h11.7c.1 0 .1 0 .2-.1 2.5-.3 4.8-2.3 5.4-4.7l9.2-39.5c.2-.9.4-2 .5-3.2.1-1.2.3-2.3.2-3-.2-5.5-2.6-9.7-7.4-12.3zm-22.1 47.1c-1.6 1-3.2 1.8-4.9 2.5-2.3.9-4.5 1.4-6.5 1.4-3.1 0-5.5-.4-7.1-1.4-1.6-.9-2.5-2.5-2.4-4.7 0-2.6.6-4.6 1.8-6.1 1.2-1.5 3.1-2.7 5.3-3.6 2.3-.8 5.1-1.4 8.3-1.9 2.9-.4 8.5-1 9.2-1 .7 0 1.2-.4.9 1.5-.1.8-1.8 7.5-2.5 10.6-.4 1-1.6 2.3-2.1 2.7z"/><path fill="#336698" d="M512 331.4h-11.2c-2.6 0-5.2 2-5.9 4.5 0 .1-.1.2-.1.3 0 0-.2 1-.6 2.8l-15.5 70.3c-.4 1.6-.6 2.7-.7 2.9-.5 2.4.9 4.5 3.4 4.7H493c2.6 0 5.2-2 5.9-4.5 0-.1.1-.2.1-.2l16.8-76.1c.6-2.6-1.1-4.7-3.8-4.7z"/></svg>