<svg id="Layer_1" data-name="Layer 1" xmlns="http://www.w3.org/2000/svg" viewBox="0 0 102.69 64"><defs><style>.cls-1{fill:#0078bf;}.cls-2{fill:#14467a;}</style></defs><title>icon</title><path class="cls-1" d="M90.84,23.49a11.7,11.7,0,0,0-5.47-1,24.06,24.06,0,0,0-3.71.29c-0.91.14-1,.16-1.57,0.28a1.8,1.8,0,0,0-1.34,1.42L78.37,26c-0.21,1,.35.94,0.6,0.87a15.88,15.88,0,0,1,1.82-.54A13.5,13.5,0,0,1,83.66,26a7.59,7.59,0,0,1,2.78.39,1.41,1.41,0,0,1,.93,1.39,1,1,0,0,1-.05.43,0.48,0.48,0,0,1-.44.28c-1.75.1-3,.26-4.51,0.48A14.14,14.14,0,0,0,78.47,30a6.06,6.06,0,0,0-2.63,2.08,5.68,5.68,0,0,0-.88,3.2,3.76,3.76,0,0,0,1.25,2.9,4.7,4.7,0,0,0,3.23,1.11,8.55,8.55,0,0,0,1.92-.18,9.74,9.74,0,0,0,1.48-.5,7.68,7.68,0,0,0,1.26-.7l1.15-.77v0l-0.11.49h0A0.91,0.91,0,0,0,86,38.85h2.85a0.06,0.06,0,0,0,0,0,1.6,1.6,0,0,0,1.31-1.15L92.41,28a5.73,5.73,0,0,0,.11-0.79,6.33,6.33,0,0,0,.05-0.74A3.23,3.23,0,0,0,90.84,23.49ZM85.42,35a8.32,8.32,0,0,1-1.2.62,4.34,4.34,0,0,1-1.6.35,3.55,3.55,0,0,1-1.74-.34,1.18,1.18,0,0,1-.6-1.14,2.34,2.34,0,0,1,.44-1.5A3.19,3.19,0,0,1,82,32.1a11.22,11.22,0,0,1,2-.45c0.7-.09,2.08-0.25,2.26-0.25s0.29-.1.22,0.37c0,0.2-.43,1.84-0.62,2.58A1.45,1.45,0,0,1,85.42,35Z"/><path class="cls-2" d="M52.37,22.73a2.62,2.62,0,0,0-1.92,1.17s-4.39,7.52-4.82,8.27c-0.23.41-.47,0.15-0.51,0L43.77,24a1.68,1.68,0,0,0-1.67-1.2H39.36a0.91,0.91,0,0,0-.93,1.17s2.09,11.85,2.5,14.64c0.2,1.54,0,1.82,0,1.82L38.2,45.1c-0.4.64-.18,1.17,0.48,1.17h3.17a2.57,2.57,0,0,0,1.92-1.16L56,24.48s1.17-1.76.09-1.75c-0.73,0-3.68,0-3.68,0"/><path class="cls-2" d="M13.88,26.92a6.43,6.43,0,0,1-3.86,1H9.27a0.91,0.91,0,0,1-.93-1.17l0.92-4a1.55,1.55,0,0,1,1.46-1.16h1a4.84,4.84,0,0,1,2.66.6A2,2,0,0,1,15.26,24a3.3,3.3,0,0,1-1.38,2.88m6.61-6.12A4.56,4.56,0,0,0,18.81,19a7.71,7.71,0,0,0-2.66-1,22.17,22.17,0,0,0-3.61-.29H6.15A1.6,1.6,0,0,0,4.68,18.9L0.37,37.64a0.91,0.91,0,0,0,.93,1.17H4.36a1.56,1.56,0,0,0,1.46-1.17l1.06-4.55a1.57,1.57,0,0,1,1.46-1.16H9.22c3.74,0,6.65-.77,8.73-2.3a7.16,7.16,0,0,0,3.12-6.07,5.72,5.72,0,0,0-.58-2.76"/><path class="cls-1" d="M69.46,27a6.46,6.46,0,0,1-3.86,1H64.84a0.91,0.91,0,0,1-.93-1.16l0.92-4a1.56,1.56,0,0,1,1.46-1.16h1a5,5,0,0,1,2.66.59,2.05,2.05,0,0,1,.89,1.83A3.37,3.37,0,0,1,69.46,27m6.61-6.13a4.69,4.69,0,0,0-1.69-1.8,7.58,7.58,0,0,0-2.66-1,21.27,21.27,0,0,0-3.6-.28h-6.4A1.6,1.6,0,0,0,60.25,19L56,37.71a0.9,0.9,0,0,0,.92,1.16h3.07a1.6,1.6,0,0,0,1.47-1.16l1-4.55A1.57,1.57,0,0,1,63.92,32h0.87q5.62,0,8.74-2.3a7.21,7.21,0,0,0,3.12-6.07,5.91,5.91,0,0,0-.58-2.76"/><path class="cls-2" d="M35.24,23.48a11.68,11.68,0,0,0-5.47-1,24.17,24.17,0,0,0-3.71.29c-0.91.14-1,.16-1.57,0.29a1.79,1.79,0,0,0-1.34,1.42L22.78,26c-0.21,1,.35.94,0.6,0.87a16.34,16.34,0,0,1,1.82-.54A13.38,13.38,0,0,1,28.07,26a7.59,7.59,0,0,1,2.78.39,1.41,1.41,0,0,1,.92,1.39,1,1,0,0,1,0,.43,0.47,0.47,0,0,1-.44.28c-1.75.11-3,.27-4.52,0.48A14.1,14.1,0,0,0,22.88,30a6.06,6.06,0,0,0-2.63,2.08,5.63,5.63,0,0,0-.88,3.19,3.75,3.75,0,0,0,1.25,2.9,4.69,4.69,0,0,0,3.23,1.11,8.62,8.62,0,0,0,1.92-.18,9.81,9.81,0,0,0,1.47-.5,7.73,7.73,0,0,0,1.26-.7l1.15-.77v0l-0.11.49h0a0.9,0.9,0,0,0,.82,1.14h2.85a0.05,0.05,0,0,0,0,0,1.6,1.6,0,0,0,1.31-1.15L36.82,28a5.33,5.33,0,0,0,.11-0.79A5.74,5.74,0,0,0,37,26.5,3.23,3.23,0,0,0,35.24,23.48ZM29.83,35a7.89,7.89,0,0,1-1.2.62,4.33,4.33,0,0,1-1.6.35,3.56,3.56,0,0,1-1.74-.34,1.19,1.19,0,0,1-.6-1.14,2.32,2.32,0,0,1,.45-1.5,3.13,3.13,0,0,1,1.3-.88,11.34,11.34,0,0,1,2-.45c0.7-.09,2.08-0.25,2.26-0.25s0.29-.1.21,0.37c0,0.21-.43,1.84-0.62,2.59A1.48,1.48,0,0,1,29.83,35Z"/><path class="cls-1" d="M101.39,18H98.64A1.57,1.57,0,0,0,97.22,19s0,0.06,0,.1L97,19.79,93.24,37c-0.09.39-.15,0.65-0.17,0.72h0a0.9,0.9,0,0,0,.81,1.13l0,0h2.84a1.58,1.58,0,0,0,1.43-1.07s0-.06,0-0.09l4.1-18.57h0A0.91,0.91,0,0,0,101.39,18Z"/></svg>