<svg xmlns="http://www.w3.org/2000/svg" viewBox="0 0 16 16"><path d="M10.9 5.8c-.1-.8-.4-1.5-.9-2.1C8.7 2 6.2 1.2 4 2 2.5 2.4 1.3 3.4.8 5.1.3 6.9 1 8.6 2.6 9.8c.3.2.3.3.2.6l-.3 1.2 1.5-.9c.1-.1.3-.1.5-.1.5 0 1 .1 1.5.2-.1-1.4.4-2.6 1.3-3.6 1-.9 2.2-1.3 3.6-1.4zm-7 .1c-.3 0-.6-.3-.6-.6s.3-.6.6-.6.6.3.6.6c.1.3-.2.6-.6.6zm4-1.3c.3 0 .6.3.6.6s-.3.6-.6.6-.6-.3-.6-.6c-.1-.3.2-.6.6-.6zM14.6 8c-1.4-1.8-4.2-2.2-6.2-.9-2.2 1.4-2.4 4.1-.6 5.8 1 .9 2.2 1.3 3.5 1.2.4 0 .9-.3 1.3-.2.4 0 .8.3 1.3.5 0-.1 0-.2-.1-.3-.3-.5-.1-.8.3-1.2 1.5-1.3 1.7-3.4.5-4.9zM9 9.6c-.3 0-.5-.2-.5-.5s.2-.5.5-.5.5.2.5.5-.2.5-.5.5zm3.2 0c-.3 0-.5-.2-.5-.5s.2-.5.5-.5.5.2.5.5-.2.5-.5.5z"/></svg>