<svg xmlns="http://www.w3.org/2000/svg" viewBox="0 0 16 16"><path d="M8.6 1.6H5s-3.6.1-3.6 3.1c0 3.1 3.2 2.7 3.2 2.7v.8c0 .4.4.3.4.9-.2 0-4.4-.1-4.4 2.7 0 2.8 3.7 2.7 3.7 2.7s4.3.2 4.3-3.3c0-2.1-2.4-2.7-2.4-3.6C6.2 6.7 8 6.5 8 4.5c0-1.2-.1-1.9-1-2.3 0-.3 1.6-.1 1.6-.6zm-1.1 9.8c.1 1.1-1.1 2-2.6 2.1-1.5.1-2.7-.7-2.8-1.8-.1-1.1 1.1-2 2.6-2.1 1.4-.1 2.7.7 2.8 1.8zM5.3 6.7c-.9.3-1.9-.5-2.2-1.8-.3-1.2.1-2.4 1-2.7.8-.2 1.8.6 2.2 1.8.3 1.3-.1 2.5-1 2.7zm7.6-2.6V1.6h-.7v2.5H9.6v.7h2.5v2.5h.7V4.8h2.5v-.7h-2.4z"/></svg>