<svg xmlns="http://www.w3.org/2000/svg" viewBox="0 0 16 16"><path d="M11.7 7.8c-.2-.1-.4-.1-.2-.4.2-.6.3-1.1 0-1.5-.5-.7-1.8-.6-3.3 0 0 0-.5.2-.4-.2.3-.7.2-1.3-.1-1.7-.8-.8-3 0-4.8 1.9C1.5 7.3.7 8.8.7 10c0 2.4 3.1 3.9 6.2 3.9 4 0 6.7-2.3 6.7-4.2-.1-1-1-1.7-1.9-1.9zm-4.9 5.3c-2.4.2-4.5-.9-4.7-2.5C2 9 3.8 7.5 6.2 7.3c2.4-.2 4.5.9 4.7 2.5.2 1.6-1.6 3.1-4.1 3.3zm7.6-9.8c-1-1.1-2.4-1.5-3.7-1.2-.3.1-.5.4-.4.7.1.3.4.5.7.4.9-.2 2 .1 2.6.9.7.8.9 1.8.6 2.7-.1.3.1.6.4.7.3.1.6-.1.7-.4.3-1.3 0-2.7-.9-3.8zm-1.7 3.5c.3.1.5-.1.6-.3.2-.6.1-1.3-.4-1.9-.5-.5-1.2-.7-1.8-.6-.3.1-.4.3-.4.6.1.3.3.5.6.4.3-.1.7 0 .9.3.2.3.3.6.2.9-.1.3 0 .5.3.6zM7.1 8.5c-1.2-.3-2.5.3-3 1.3s0 2.2 1.2 2.6c1.2.4 2.6-.2 3.1-1.3s-.1-2.3-1.3-2.6zm-.9 2.7c-.2.4-.7.5-1.1.4-.4-.2-.5-.6-.2-1 .2-.4.7-.5 1.1-.4.3.2.4.6.2 1zm.8-1c-.1.1-.3.2-.4.2-.1-.1-.2-.2-.1-.4.1-.1.3-.2.4-.2.1.1.1.2.1.4z"/></svg>