<svg xmlns="http://www.w3.org/2000/svg" viewBox="0 0 16 16"><path d="M15.3 5c0-.8-.2-1.3-.3-1.8-.2-.5-.4-.9-.9-1.3s-.8-.7-1.3-.9c-.5-.2-1-.3-1.8-.3H5c-.8 0-1.4.1-1.8.3-.5.2-.9.4-1.3.9s-.7.8-.9 1.3C.8 3.6.7 4.2.7 5v6c0 .8.2 1.3.3 1.8.2.5.4.9.9 1.3s.8.7 1.3.9c.5.2 1 .3 1.8.3h6c.8 0 1.3-.2 1.8-.3.5-.2.9-.4 1.3-.9s.7-.8.9-1.3c.2-.5.3-1 .3-1.8V8s.1-2.3 0-3zM14 11c0 .7-.2 1.1-.3 1.4-.1.3-.3.6-.6.8s-.5.4-.8.6c-.2.1-.6.2-1.3.2H5c-.7 0-1.1-.2-1.4-.3-.3-.1-.6-.3-.8-.6s-.4-.5-.6-.8c-.1-.2-.2-.6-.2-1.3V5c0-.7.2-1.1.3-1.4.1-.3.3-.6.6-.8s.5-.4.8-.6c.2-.1.6-.2 1.3-.2h6c.7 0 1.1.2 1.4.3.3.1.6.3.8.6s.4.5.6.8c.1.2.2.6.2 1.3v6zM8 4.2C5.9 4.2 4.2 5.9 4.2 8s1.7 3.8 3.8 3.8 3.8-1.7 3.8-3.8S10.1 4.2 8 4.2zm0 6.3c-1.4 0-2.5-1.1-2.5-2.5S6.6 5.5 8 5.5s2.5 1.1 2.5 2.5-1.1 2.5-2.5 2.5zm3.9-7.3c-.5 0-.9.4-.9.9s.4.9.9.9.9-.4.9-.9-.4-.9-.9-.9z"/></svg>