<svg xmlns="http://www.w3.org/2000/svg" viewBox="0 0 16 16"><path d="M14.9 10.7c-.4-.6-.8-.9-1.3-1.4-.3-.2-.6-.5-.6-.8 0-.4.4-.8.6-1.1.5-.7 1-1.1 1.4-1.9.1-.2.5-.9.4-1.2-.2-.3-1.1-.3-1.6-.3-.6 0-1.3-.1-1.7.1-.3.1-.4.7-.6 1-.4.8-.7 1.3-1.1 2-.2.3-.4.7-.8.7-.5-.3-.4-1.1-.4-1.8 0-.6.2-1.5-.1-1.9-.2-.5-1.2-.4-1.9-.4-.8 0-1.5 0-1.8.6.3.2.6.2.8.5.2.3.2 1.1.2 1.7 0 .5 0 1.3-.4 1.4-.3 0-.6-.5-.8-.8-.5-.6-.8-1.2-1.2-2-.2-.3-.4-.9-.6-1-.2-.1-.9 0-1.4 0-.5 0-1.1-.1-1.4.2 0 .6.3 1.1.5 1.5.7 1.4 1.4 2.7 2.4 3.9.9 1.1 1.9 2.2 3.9 2.4.6.1 1.5.1 1.8-.2.3-.5-.1-1.6.6-1.7.4-.1.8.6 1.1.8.4.5.9 1 1.7 1.1h.2c.4.1 2.6.3 2.7-.5-.1-.2-.4-.7-.6-.9z"/></svg>