<svg xmlns="http://www.w3.org/2000/svg" viewBox="0 0 16 16"><path d="M15.4 7c0-3.3-3.3-6-7.4-6C3.9 1 .6 3.7.6 7c0 3 2.6 5.4 6.2 5.9.2 0 .6.1.6.3.1.2 0 .5 0 .7 0 0-.1.5-.1.6 0 .2-.1.7.6.4.8-.3 4.2-2.5 5.8-4.3 1.2-1.1 1.7-2.3 1.7-3.6zM5.1 8.9H3.6c-.2 0-.4-.2-.4-.4V5.6c0-.2.2-.4.4-.4.3 0 .4.2.4.4v2.5h1.1c.2 0 .4.2.4.4s-.2.4-.4.4zm1.5-.4c0 .2-.2.4-.4.4s-.3-.2-.3-.4V5.6c0-.2.2-.4.4-.4s.4.2.4.4v2.9zm3.6 0c0 .2-.1.3-.3.4h-.1c-.1 0-.2-.1-.3-.2L8 6.7v1.8c0 .2-.2.4-.4.4s-.4-.2-.4-.4V5.6c0-.2.1-.3.3-.4h.1c.1 0 .2.1.3.2l1.5 2V5.6c0-.2.2-.4.4-.4s.4.2.4.4v2.9zm2.3-1.8c.2 0 .4.2.4.4s-.2.4-.4.4h-1.1v.7h1.1c.2 0 .4.2.4.4s-.2.4-.4.4H11c-.2 0-.4-.2-.4-.4v-3c0-.2.2-.4.4-.4h1.5c.2 0 .4.2.4.4s-.2.4-.4.4h-1.1v.7h1.1z"/></svg>