<svg xmlns="http://www.w3.org/2000/svg" viewBox="-255 347 100 100"><path d="M-205 347c-27.6 0-50 22.4-50 50s22.4 50 50 50 50-22.4 50-50-22.4-50-50-50zm18.8 50c-4.5 17.7-33.6 25.2-47.1 7 5.2 4.8 14.1 5.2 19.8-.6-3.3.5-5.7-2.8-1.6-4.6-3.7.4-5.8-1.6-6.7-3.3.9-.8 1.9-1.3 3.7-1.4-4-.9-5.6-2.9-6-5.3 1.2-.3 2.6-.5 3.3-.4-3.6-1.9-4.7-4.6-4.6-6.7 6.3 2.3 10.4 4.3 13.7 6 1.3.7 2.5 1.9 4.1 3.3 1.8-5.1 4.2-10.2 8.2-12.9 0 .7-.3 1.1-.7 1.7 1.1-1.1 2.5-1.9 4.1-2-.1 1.1-1.8 1.7-2.8 2.1.9-.3 4.9-2 5.3-1 .4 1.1-2.9 1.7-3.3 1.8-.4.1-.9.3-1.3.4 4.9-.4 9.8 3.7 11.2 9 .2.2.3.7.3 1.1 1.8.7 5.3 0 6.4-.7-.8 1.9-2.8 3.3-5.8 3.6 1.5.5 4.2.8 6.1.5-1.2 1.3-3.2 2.4-6.3 2.4z"/></svg>