<svg id="Layer_1" data-name="Layer 1" xmlns="http://www.w3.org/2000/svg" viewBox="0 0 46.41 32"><title>icon</title><path d="M41.21,14.23c2.6-.25,4.33-1.49,5.07-3.09a8.25,8.25,0,0,1-5.57.62,2.31,2.31,0,0,0-.25-1C39.23,6.19,35,2.6,30.69,3l1.11-.37C32.18,2.48,35,2,34.65,1s-3.83.62-4.58,0.87C30.94,1.49,32.43,1,32.55,0A5.81,5.81,0,0,0,29,1.73,2.27,2.27,0,0,0,29.58.25C26.11,2.6,24,7.05,22.4,11.51a20.9,20.9,0,0,0-3.59-2.85A93.31,93.31,0,0,0,6.93,3.47c-0.12,1.86.87,4.21,4,5.82A8.55,8.55,0,0,0,8,9.65c0.37,2.1,1.73,3.84,5.2,4.58A4.56,4.56,0,0,0,10,15.47a5.48,5.48,0,0,0,5.82,2.85c-3.59,1.61-1.48,4.45,1.36,4A12.38,12.38,0,0,1,0,22.77c11.76,16,37.13,9.41,41-5.94a7,7,0,0,0,5.44-2.11A11.86,11.86,0,0,1,41.21,14.23Z"/></svg>