<svg xmlns="http://www.w3.org/2000/svg" viewBox="0.5 206 611.5 382.5"><path fill="#E03A3E" d="M120.3 206h152.6c21.3 0 34.6 17.4 29.6 38.8l-71.1 305.1c-5 21.3-26.3 38.7-47.7 38.7H31.1c-21.3 0-34.6-17.4-29.6-38.7l71.1-305.1c5-21.4 26.3-38.8 47.7-38.8z"/><path d="M260.2 206h175.5c21.3 0 11.7 17.4 6.7 38.8l-71.1 305.1c-5 21.3-3.4 38.7-24.8 38.7H171.1c-21.3 0-34.5-17.4-29.5-38.7l71-305.1c5-21.4 26.3-38.8 47.6-38.8z"/><path fill="#008185" d="M428.8 206h152.6c21.3 0 34.6 17.4 29.6 38.8l-71.1 305.1c-5 21.3-26.3 38.7-47.7 38.7H339.6c-21.4 0-34.6-17.4-29.6-38.7l71-305.1c5.1-21.4 26.4-38.8 47.8-38.8z"/><path fill-rule="evenodd" clip-rule="evenodd" fill="#FFF" d="M403.3 493h14.4l4.2-13.8h-14.4l-4.2 13.8zm11.5-38.2l-4.9 16.4s5.5-2.8 8.4-3.7c2.9-.7 7.4-1.2 7.4-1.2l3.5-11.4h-14.4v-.1zm7.1-23.5l-4.8 15.7s5.4-2.4 8.3-3.2c3-.8 7.4-1.1 7.4-1.1l3.4-11.4h-14.3zm31.8 0l-18.6 61.6h5l-3.9 12.7h-5l-1.2 3.9h-17.7l1.2-3.9h-36l3.6-11.8h3.6l18.9-62.5 3.8-12.6h18.1l-1.9 6.4s4.8-3.5 9.4-4.6c4.5-1.2 30.7-1.6 30.7-1.6l-3.9 12.5h-6.1v-.1z"/><path fill="#FFF" d="M461.7 418.7H481l.2 7.2c-.1 1.2.9 1.8 3.2 1.8h3.9l-3.6 11.9h-10.4c-9 .7-12.4-3.2-12.2-7.6l-.4-13.3zm2.6 56.3h-18.4l3.1-10.6h21l3-9.6h-20.7l3.6-11.9h57.7l-3.6 11.9h-19.3l-3 9.6H507l-3.2 10.6h-21l-3.7 4.5h8.5l2.1 13.3c.2 1.3.3 2.2.7 2.7.4.5 3 .7 4.5.7h2.6l-3.9 13h-6.5c-1 0-2.5-.1-4.6-.2-2-.2-3.4-1.3-4.7-2-1.2-.6-3-2.1-3.4-4.5l-2-13.3-9.5 13.1c-3 4.1-7.1 7.3-14.1 7.3h-13.4l3.5-11.6h5.1c1.5 0 2.8-.6 3.7-1.1 1-.4 1.9-.9 2.8-2.4l13.8-19.5zM263 446.1h48.7l-3.6 11.6h-19.5l-3 9.9h19.9l-3.6 12H282l-4.8 16.1c-.6 1.8 4.7 2 6.6 2l10-1.4-4 13.3h-22.4c-1.8 0-3.1-.2-5.1-.7-1.9-.5-2.7-1.3-3.6-2.6-.8-1.3-2.1-2.4-1.2-5.2l6.4-21.3h-11l3.7-12.2h11.1l2.9-9.9h-11l3.4-11.6zm32.8-20.9h20l-3.6 12.1h-27.3l-3 2.6c-1.3 1.2-1.7.7-3.3 1.6-1.5.8-4.8 2.3-9 2.3h-8.7l3.5-11.7h2.6c2.2 0 3.7-.2 4.5-.7.9-.5 1.8-1.8 2.9-3.8l5-9.1h19.9l-3.5 6.7z"/><path fill-rule="evenodd" clip-rule="evenodd" fill="#FFF" d="M334.1 445.2s5.4-5 14.8-6.6c2.1-.4 15.4-.3 15.4-.3l2-6.7h-28.1l-4.1 13.6zm26.3 5.1h-27.9l-1.7 5.6H355c2.8-.3 3.4.1 3.7-.1l1.7-5.5zm-36.1-31.6h17l-2.5 8.6s5.4-4.3 9.1-5.8c3.7-1.4 12.2-2.7 12.2-2.7l27.5-.1-9.4 31.2c-1.6 5.4-3.4 8.8-4.6 10.4-1 1.6-2.3 3-4.7 4.3-2.3 1.2-4.4 2-6.4 2.1-1.8.1-4.6.2-8.5.2h-26.5l-7.5 24.7c-.7 2.4-1 3.6-.6 4.3.4.6 1.3 1.3 2.5 1.3l11.7-1.1-4 13.5h-13.1c-4.1 0-7.2-.1-9.3-.2-2-.2-4.1 0-5.5-1.1-1.2-1.1-3.1-2.5-3-3.9.1-1.3.7-3.6 1.5-6.6l24.1-79.1z"/><path fill="#FFF" d="M373.9 469.1l-1.6 7.5c-.7 2.3-1.3 4.1-3 5.6-1.8 1.6-4 3.2-9.2 3.2l-9.4.4-.1 8.5c-.1 2.4.5 2.2.9 2.5.4.4.8.6 1.3.8l3-.2 9-.5-3.7 12.4h-10.4c-7.2 0-12.6-.2-14.4-1.6-1.7-1.1-2-2.5-1.9-4.9l.7-33h16.5l-.2 6.7h4c1.4 0 2.3-.1 2.8-.5s.9-.9 1.1-1.7l1.6-5.3h13v.1zM138.3 303.5c-.6 2.7-11.2 51.6-11.2 51.6-2.3 9.9-3.9 17-9.6 21.5-3.2 2.6-6.9 3.9-11.3 3.9-6.9 0-11-3.5-11.7-10l-.1-2.2 2.1-13.3s11.1-44.5 13.1-50.4c.1-.3.1-.5.2-.7-21.6.2-25.5 0-25.7-.3-.1.4-.7 3.2-.7 3.2L72.1 357l-1 4.3-1.9 13.7c0 4.1.8 7.5 2.4 10.3 5.2 9.1 19.9 10.4 28.3 10.4 10.8 0 20.8-2.3 27.6-6.4 11.8-7 15-17.9 17.7-27.6l1.3-5s11.5-46.3 13.4-52.3c0-.3.1-.5.2-.7-15.7.3-20.3.1-21.8-.2zm63.4 91.8c-7.7-.1-10.4-.1-19.3.3l-.4-.6 2.4-10.2 1.1-4.7c1.6-7.3 3.3-15.7 3.5-18.3.1-1.6.7-5.4-3.7-5.4-1.9 0-3.8.9-5.8 1.8-1.1 3.9-3.3 14.7-4.3 19.7-2.2 10.4-2.4 11.6-3.4 16.8l-.7.7c-7.9-.1-10.6-.1-19.7.3l-.4-.7c1.5-6.2 3-12.5 4.5-18.6 3.8-16.8 4.7-23.2 5.8-31.8l.7-.5c8.9-1.2 11-1.5 20.6-3.5l.8.9-1.4 5.4c1.6-1 3.2-1.9 4.8-2.8 4.5-2.2 9.6-2.9 12.3-2.9 4.2 0 8.8 1.2 10.7 6 1.8 4.3.6 9.7-1.8 20.2l-1.2 5.4c-2.4 11.7-2.9 13.9-4.2 21.9l-.9.6zm31.1 0c-4.6 0-7.6-.1-10.5 0-2.9 0-5.7.2-10 .4l-.3-.4-.3-.4c1.2-4.5 1.8-6 2.4-7.6.6-1.6 1.1-3.2 2.2-7.7 1.3-5.9 2.2-10 2.8-13.6.6-3.5 1-6.4 1.4-9.9l.4-.3.4-.3c4.6-.7 7.5-1.1 10.5-1.5 3-.4 6-1 10.8-1.9l.2.4.1.4c-.9 3.6-1.8 7.3-2.7 11-.9 3.7-1.7 7.3-2.6 11-1.7 7.7-2.4 10.6-2.8 12.7-.4 2-.5 3-1.2 7.1l-.4.3-.4.3zm48.9-27.3c-.4 2-2.1 9.4-4.5 12.5-1.6 2.3-3.6 3.7-5.7 3.7-.6 0-4.4 0-4.5-5.6 0-2.8.5-5.7 1.2-8.7 2-8.9 4.4-16.4 10.5-16.4 4.8 0 5.1 5.5 3 14.5zm20.1.9c2.7-11.8.6-17.3-2-20.7-4-5.1-11.1-6.8-18.4-6.8-4.4 0-14.9.4-23.1 8-5.9 5.4-8.6 12.8-10.2 19.9-1.7 7.2-3.6 20.3 8.4 25.1 3.7 1.6 9 2 12.4 2 8.8 0 17.8-2.4 24.5-9.6 5.2-5.8 7.6-14.4 8.4-17.9zm187.7 27.2c-9.2-.1-11.9-.1-20.5.3l-.6-.7c2.3-8.8 4.7-17.6 6.7-26.5 2.7-11.6 3.3-16.5 4.2-23.2l.7-.6c9.2-1.3 11.7-1.7 21.3-3.5l.3.8c-1.7 7.2-3.5 14.5-5.2 21.8-3.5 15.2-4.8 23-6.2 30.9l-.7.7z"/><path fill="#FFF" d="M475.6 369c-.4 1.9-2.2 9.4-4.6 12.5-1.6 2.2-5.3 3.6-7.5 3.6-.6 0-4.4 0-4.5-5.6 0-2.7.5-5.6 1.2-8.7 2-8.8 4.4-16.2 10.5-16.2 4.9 0 6.9 5.4 4.9 14.4zm18.3.9c2.7-11.7-8.1-1-9.9-4.9-2.7-6-1-18.3-11.7-22.4-4.1-1.6-13.7.5-22 8-5.8 5.4-8.6 12.7-10.2 19.8-1.7 7.1-3.6 20.1 8.3 24.8 3.8 1.6 7.2 2.1 10.6 1.9 12-.7 21.1-18.7 27.8-25.9 5.4-5.6 6.3 2.2 7.1-1.3zm-139.7 25.4c-7.7-.1-10.3-.1-19.3.3l-.3-.7 2.4-10.2 1.1-4.7c1.7-7.3 3.3-15.7 3.5-18.3.2-1.6.7-5.4-3.7-5.4-1.9 0-3.8.9-5.8 1.8-1.1 3.9-3.3 14.7-4.3 19.7-2.2 10.4-2.3 11.6-3.3 16.8l-.7.7c-7.9-.1-10.6-.1-19.7.3l-.4-.7c1.5-6.2 3-12.5 4.5-18.6 3.8-16.8 4.7-23.2 5.8-31.8l.7-.5c8.9-1.2 11-1.5 20.6-3.5l.8.9-1.4 5.4c1.6-1 3.2-1.9 4.8-2.8 4.5-2.2 9.6-2.9 12.3-2.9 4.2 0 8.8 1.2 10.8 6 1.8 4.3.6 9.7-1.8 20.2l-1.2 5.4c-2.5 11.7-2.9 13.9-4.2 21.9l-1.2.7zm66.5-91.9l-6.4.1c-16.6.2-23.3.1-26-.2-.3 1.2-.7 3.4-.7 3.4l-5.9 27.6s-14.2 58.6-14.9 61.3c14.5-.2 20.4-.2 22.9.1.6-2.7 3.9-19.1 4-19.1 0 0 2.9-12 3-12.5 0 0 .9-1.2 1.8-1.7h1.3c12.5 0 26.6 0 37.7-8.1 7.5-5.6 12.7-13.8 15-23.8.6-2.5 1-5.4 1-8.3 0-3.8-.8-7.6-3-10.6-5.6-8-16.8-8.1-29.8-8.2zm8.4 28.7c-1.3 6.1-5.3 11.2-10.4 13.7-4.2 2.1-9.4 2.3-14.7 2.3h-3.4l.3-1.4s6.3-27.5 6.3-27.4l.2-1.4.1-1.1 2.5.3s13 1.1 13.4 1.2c5 1.9 7.1 7.1 5.7 13.8zm136.2 9.8l-.7-.8c-9.5 1.9-11.2 2.2-19.9 3.4l-.7.5c0 .1-.1.3-.1.4v-.1c-6.5 15-6.3 11.7-11.6 23.5 0-.5 0-.9-.1-1.5l-1.3-25.5-.8-.8c-9.9 1.9-10.2 2.2-19.3 3.4l-.7.6c-.1.3-.1.7-.1 1l.1.1c1.1 5.9.9 4.5 2 13.8.5 4.5 1.2 9.1 1.8 13.6.9 7.5 1.4 11.2 2.5 22.6-6.2 10.2-7.7 14.1-13.6 23.1l.3.8c9-.3 11-.3 17.7-.3l1.5-1.6c4.9-10.8 43-76.2 43-76.2zm-324 6.3c5.1-3.5 5.7-8.4 1.4-10.9-4.3-2.6-11.9-1.8-17 1.8-5.1 3.5-5.7 8.4-1.4 11 4.3 2.4 11.9 1.6 17-1.9z"/><path fill="#FFF" d="M521.5 419l-7.5 12.8c-2.4 4.4-6.7 7.6-13.7 7.7l-11.9-.2 3.5-11.5h2.3c1.2 0 2.1-.1 2.8-.4.6-.2 1-.7 1.5-1.4l4.4-7h18.6z"/></svg>