<svg xmlns="http://www.w3.org/2000/svg" viewBox="0.9 195 612 387.9"><path fill="#FFF" d="M605.8 555.8c0 11-8.9 19.9-19.9 19.9H28c-11 0-19.9-8.9-19.9-19.9V222c0-11 8.9-19.9 19.9-19.9h557.9c11 0 19.9 8.9 19.9 19.9v333.8z"/><path fill="#D0D2D3" d="M585.9 582.8H28C13.1 582.8.9 570.7.9 555.7V222c0-14.9 12.1-27 27.1-27h557.9c14.9 0 27 12.1 27 27.1v333.7c0 14.9-12.1 27-27 27zM28 209.2c-7 0-12.8 5.7-12.8 12.8v333.7c0 7.1 5.7 12.8 12.8 12.8h557.9c7 0 12.8-5.7 12.8-12.8V222c0-7.1-5.7-12.8-12.8-12.8H28z"/><path d="M283.1 445h-29.2l18.3-112.1h29.2m-72 0L201.5 410l-3.3-16.6-9.8-50.4s-1.2-10.1-13.8-10.1h-46l-.5 1.9s14.1 2.9 30.5 12.8L184 445h30.4l46.5-112.2h-31.5zM459 445h26.8l-23.4-112.2H439c-10.8 0-13.5 8.4-13.5 8.4L382 445h30.4l6.1-16.7h37.1L459 445zm-32.1-39.7l15.3-42 8.6 42h-23.9zm-42.7-45.5l4.2-24.1s-12.9-4.9-26.3-4.9c-14.5 0-48.9 6.3-48.9 37.1 0 29 40.4 29.3 40.4 44.5s-36.2 12.5-48.2 2.9l-4.3 25.2s13 6.3 33 6.3c19.9 0 50-10.3 50-38.4 0-29.2-40.8-31.9-40.8-44.6 0-12.5 28.4-10.9 40.9-4z" fill="#0767B0"/><path fill="#F9A533" d="M198.2 393.4l-9.8-50.4s-1.2-10.1-13.8-10.1h-46l-.5 1.9s22.1 4.6 43.3 21.8c20.2 16.3 26.8 36.8 26.8 36.8z"/></svg>