<svg id="Layer_1" xmlns="http://www.w3.org/2000/svg" viewBox="0 0 32 20"><style>.st0{fill:#010101;} .st1{fill-rule:evenodd;clip-rule:evenodd;fill:#FFFFFF;} .st2{fill-rule:evenodd;clip-rule:evenodd;fill:#144BA0;} .st3{fill:#FECF0C;} .st4{fill:#5B3C18;} .st5{fill:#FFFFFF;} .st6{fill:#D1D3D4;} .st7{fill:#0A67B2;} .st8{fill:#FAA634;} .st9{fill:#ED1C24;} .st10{fill:#FAA61A;} .st11{fill:#0078A9;} .st12{fill:#03A550;} .st13{fill:#0C72BA;} .st14{fill:#EB2227;} .st15{fill:#F58220;} .st16{fill:#14467A;} .st17{fill:#0078BF;} .st18{fill:#005189;} .st19{fill:#ED7220;} .st20{fill:#1E439B;} .st21{fill:#A7A9AC;}</style><path class="st5" d="M30.9 0H1.1C.5 0 0 .5 0 1.1v17.8c0 .6.5 1.1 1.1 1.1h29.8c.6 0 1.1-.5 1.1-1.1V1.1c0-.6-.5-1.1-1.1-1.1z"/><path class="st6" d="M30.9 0H1.1C.5 0 0 .5 0 1.1v17.8c0 .6.5 1.1 1.1 1.1h29.8c.6 0 1.1-.5 1.1-1.1V1.1c0-.6-.5-1.1-1.1-1.1zm.3 18.9c0 .2-.1.3-.3.3H1.1c-.2 0-.3-.1-.3-.3V1.1c0-.2.1-.3.3-.3h29.8c.2 0 .3.1.3.3v17.8z"/><path class="st11" d="M20.5 14.1h2.4v-.6h-1.7v-.6h1.6v-.6h-1.6v-.6h1.7v-.6h-2.4v3zm7.1-1.9h-.5c-.2 0-.3-.1-.3-.2 0-.3.3-.3.5-.3h1.1v-.6h-1.5c-.5 0-.9.3-.9.9 0 .5.2.9 1 .9h.5c.2 0 .3.1.3.2 0 .3-.3.3-.5.3h-1.2v.6h1.5c.5 0 .9-.3.9-.9 0-.4 0-.8-.9-.9zm-2.8 0h-.5c-.2 0-.3-.1-.3-.2 0-.3.3-.3.5-.3h1.1v-.6h-1.5c-.5 0-.9.3-.9.9 0 .5.2.9 1 .9h.5c.2 0 .3.1.3.2 0 .3-.3.3-.5.3h-1.2v.6h1.5c.5 0 .9-.3.9-.9.1-.4 0-.8-.9-.9zm-8.7-1.1h-2.6l-.8.9-.8-.9H9v3h2.8l.9-1 .9 1H15v-1h1c.4 0 1.1 0 1.1-1.1-.1-.8-.7-.9-1-.9zm-4.7 2.3H9.7v-.6h1.6v-.6H9.7v-.6h1.8l.7.8-.8 1zm2.8.4l-1.1-1.2 1.1-1.2v2.4zm1.6-1.4h-.9v-.7h.9c.3 0 .4.2.4.3 0 .3-.1.4-.4.4zm4.3-.5c0-.6-.5-.8-.9-.8h-1.9v3h.7V13h1c.3 0 .4.3.4.5v.5h.7v-.6c0-.5-.1-.7-.5-.7.4-.2.5-.5.5-.8zm-1.1.5h-.9v-.7h.9c.3 0 .4.2.4.3 0 .3-.1.4-.4.4zm-.6-6.5h-.7v3h.7v-3zM14 8.3h-1.7v-.6H14v-.6h-1.6v-.5H14v-.7h-2.4v3H14v-.6zm3.3-1.6c0-.6-.5-.8-.9-.8h-1.9v3h.7V7.8h1c.3 0 .4.3.4.5v.5h.7v-.6c0-.5-.1-.7-.5-.7.4-.2.5-.4.5-.8zm-1.2.5h-.9v-.6h.9c.3 0 .4.2.4.3 0 .2-.1.3-.4.3zm-5.7-.5v2.2h.7v-3H9.9l-.9 2-.9-2H7v2.9L5.7 5.9h-1l-1.3 3h.8l.3-.7H6l.3.7h1.5V6.7l1 2.2h.7l.9-2.2zm-5.6.9l.4-1 .5 1h-.9zm15.1 1.3h1l.3-.7h1.5l.3.7h1.4V6.7l1.3 2.2h1v-3H26V8l-1.2-2.1h-1.1v2.8l-1.3-2.8h-1l-1 2.3h-.5c-.2 0-.5-.2-.5-.7v-.2c0-.7.4-.8.9-.8h.5v-.6h-1c-.3 0-1.1.3-1.1 1.5 0 .8.4 1.5 1.2 1.5zm2-2.4l.5 1h-.9l.4-1z"/></svg>