<svg id="Layer_1" xmlns="http://www.w3.org/2000/svg" viewBox="0 0 32 20"><style>.st0{fill:#010101;} .st1{fill-rule:evenodd;clip-rule:evenodd;fill:#FFFFFF;} .st2{fill-rule:evenodd;clip-rule:evenodd;fill:#144BA0;} .st3{fill:#FECF0C;} .st4{fill:#5B3C18;} .st5{fill:#FFFFFF;} .st6{fill:#D1D3D4;} .st7{fill:#0A67B2;} .st8{fill:#FAA634;} .st9{fill:#ED1C24;} .st10{fill:#FAA61A;} .st11{fill:#0078A9;} .st12{fill:#03A550;} .st13{fill:#0C72BA;} .st14{fill:#EB2227;} .st15{fill:#F58220;} .st16{fill:#14467A;} .st17{fill:#0078BF;} .st18{fill:#005189;} .st19{fill:#ED7220;} .st20{fill:#1E439B;} .st21{fill:#A7A9AC;}</style><path class="st5" d="M30.9 0H1.1C.5 0 0 .5 0 1.1v17.8c0 .6.5 1.1 1.1 1.1h29.8c.6 0 1.1-.5 1.1-1.1V1.1c0-.6-.5-1.1-1.1-1.1z"/><path class="st21" d="M30.9 0H1.1C.5 0 0 .5 0 1.1V19c0 .5.5 1 1.1 1H31c.6 0 1.1-.5 1.1-1.1V1.1C32 .5 31.5 0 30.9 0zm.3 18.9c0 .2-.1.3-.3.3H1.1c-.2 0-.3-.1-.3-.3V7.5h30.5v11.4zm0-15.1H.8V1.1c0-.2.1-.3.3-.3H31c.2 0 .3.1.3.3v2.7zm-14.5 8.4H5.4v.8h11.3v-.8zm0 2H5.4v.8h11.3v-.8z"/></svg>