<svg id="Layer_1" xmlns="http://www.w3.org/2000/svg" viewBox="0 0 32 20"><style>.st0{fill:#010101;} .st1{fill-rule:evenodd;clip-rule:evenodd;fill:#FFFFFF;} .st2{fill-rule:evenodd;clip-rule:evenodd;fill:#144BA0;} .st3{fill:#FECF0C;} .st4{fill:#5B3C18;} .st5{fill:#FFFFFF;} .st6{fill:#D1D3D4;} .st7{fill:#0A67B2;} .st8{fill:#FAA634;} .st9{fill:#ED1C24;} .st10{fill:#FAA61A;} .st11{fill:#0078A9;} .st12{fill:#03A550;} .st13{fill:#0C72BA;} .st14{fill:#EB2227;} .st15{fill:#F58220;} .st16{fill:#14467A;} .st17{fill:#0078BF;} .st18{fill:#005189;} .st19{fill:#ED7220;} .st20{fill:#1E439B;} .st21{fill:#A7A9AC;}</style><path class="st5" d="M30.9 0H1.1C.5 0 0 .5 0 1.1v17.8c0 .6.5 1.1 1.1 1.1h29.8c.6 0 1.1-.5 1.1-1.1V1.1c0-.6-.5-1.1-1.1-1.1z"/><path class="st6" d="M30.9 0H1.1C.5 0 0 .5 0 1.1v17.8c0 .6.5 1.1 1.1 1.1h29.8c.6 0 1.1-.5 1.1-1.1V1.1c0-.6-.5-1.1-1.1-1.1zm.3 18.9c0 .2-.1.3-.3.3H1.1c-.2 0-.3-.1-.3-.3V1.1c0-.2.1-.3.3-.3h29.8c.2 0 .3.1.3.3v17.8z"/><path class="st12" d="M20.2 4.9c-.9 0-1.7.8-1.7 1.7v1.7h2.6c.5 0 .9.3.9.8 0 .4-.3.7-.8.8.5 0 1 .3 1 .8s-.5.8-1.1.8h-2.6V15H21c.9 0 1.7-.8 1.7-1.7V4.9h-2.5zm-.8 6.2h1.1c.2 0 .3-.2.3-.4s-.2-.4-.3-.4h-1.1v.8zm1.3-1.8c0-.2-.2-.4-.3-.4h-1v.8h1c.1 0 .3-.2.3-.4z"/><path class="st13" d="M10.9 4.9c-.9 0-1.7.8-1.7 1.7v4.2c.5.2 1 .4 1.5.4.6 0 .9-.4.9-.8v-2H13v2c0 .8-.5 1.4-2.1 1.4-1 0-1.7-.2-1.7-.2V15h2.5c.9 0 1.7-.8 1.7-1.7V4.9h-2.5z"/><path class="st14" d="M15.6 4.9c-.9 0-1.7.8-1.7 1.7v2.2c.4-.4 1.2-.6 2.4-.5.6 0 1.3.2 1.3.2v.7c-.3-.2-.7-.3-1.3-.4-.9-.1-1.5.4-1.5 1.2 0 .8.5 1.2 1.5 1.2.5 0 .9-.2 1.3-.4v.7s-.7.2-1.3.2c-1.2.1-1.9-.2-2.4-.5V15h2.5c.9 0 1.7-.8 1.7-1.7V4.9h-2.5z"/></svg>