<?xml version="1.0" encoding="utf-8"?>
<!-- Generator: Adobe Illustrator 21.0.0, SVG Export Plug-In . SVG Version: 6.00 Build 0)  -->
<svg version="1.1" id="Layer_1" xmlns="http://www.w3.org/2000/svg" xmlns:xlink="http://www.w3.org/1999/xlink" x="0px" y="0px"
	 viewBox="0 0 102.4 64" style="enable-background:new 0 0 102.4 64;" xml:space="preserve">
<style type="text/css">
	.st0{fill:#D1D3D4;}
	.st1{fill:#EC1C24;}
	.st2{fill:#0071BB;}
	.st3{fill:#009DA4;}
</style>
<title>icon</title>
<path class="st0" d="M99,2.5c0.6,0,1,0.4,1,1v57.1c0,0.6-0.4,1-1,1H3.4c-0.6,0-1-0.4-1-1V3.4c0-0.6,0.4-1,1-1L99,2.5 M99,0H3.4
	C1.5,0,0,1.5,0,3.4c0,0,0,0,0,0v57.2C0,62.5,1.5,64,3.4,64H99c1.9,0,3.4-1.5,3.4-3.4v0V3.4C102.4,1.5,100.9,0,99,0C99,0,99,0,99,0
	L99,0z"/>
<g>
	<path class="st1" d="M34.2,48.2l4.8-21c-0.3,0-0.5,0.1-0.7,0.3c-0.3,0.2-0.4,0.5-0.5,1l-0.6,3.2h-1.4l1.1-5.6h1.4L38,26.8l0.2-0.2
		c0.3-0.3,0.6-0.5,1-0.6l2.3-10.1c0.5-2.1,3.2-3.8,5.3-3.9l-14.2,0c-2.1,0-4.9,1.7-5.4,3.9l-7.3,32.4c0,0.2-0.1,0.4-0.1,0.6v0.6
		c0.1,1.5,1.3,2.7,3,2.7h14.3C35,52,33.7,50.3,34.2,48.2z M33.4,31c-0.8,0.6-1.8,0.9-3,0.9c-1.2,0-2-0.3-2.5-0.9
		c-0.4-0.4-0.6-0.9-0.6-1.6c0-0.3,0-0.5,0.1-0.9l1.3-6.3h2l-1.3,6.2c0,0.2-0.1,0.3-0.1,0.5c0,0.3,0.1,0.6,0.2,0.8
		c0.2,0.3,0.6,0.5,1.1,0.5c0.6,0,1.1-0.1,1.5-0.4c0.4-0.3,0.6-0.7,0.8-1.3l1.3-6.2h2l-1.3,6.3C34.7,29.6,34.2,30.4,33.4,31z"/>
	<path class="st2" d="M48,30.5c0.4,0,0.8-0.1,1-0.4c0.3-0.3,0.5-0.7,0.6-1.3c0-0.1,0-0.2,0-0.3c0-0.1,0-0.2,0-0.3
		c0-0.3-0.1-0.6-0.3-0.8c-0.2-0.2-0.4-0.3-0.7-0.3c-0.4,0-0.8,0.1-1,0.5c-0.3,0.3-0.5,0.8-0.6,1.4c0,0.1,0,0.2,0,0.3
		c0,0.1,0,0.2,0,0.3c0,0.3,0.1,0.6,0.3,0.8C47.4,30.4,47.7,30.5,48,30.5z"/>
	<path class="st2" d="M52.6,42.3c0,0.1,0,0.2,0.1,0.2l0.7-3.3h0L52.6,42.3z"/>
	<path class="st2" d="M51.4,48.2l1.1-4.7h-1c-0.7,0-1-0.2-0.8-0.6l2.3-8.6h1.6l0.6-2.6H55l0.7-3.5c0.1-0.4,0.1-0.6-0.1-0.8
		c-0.1-0.2-0.3-0.3-0.6-0.3c-0.4,0-0.7,0.1-0.9,0.3c-0.3,0.2-0.4,0.5-0.5,1L53,31.6h-1.4l1.1-5.6h1.4l-0.2,0.8l0.2-0.2
		c0.5-0.5,1-0.7,1.6-0.7c0.3,0,0.5,0,0.7,0.1l2.3-10.2c0.5-2.1,3.1-3.8,5.3-3.9l-6.1,0l-11.1,0c-2.1,0-4.8,1.8-5.3,3.9L39.2,26
		c0.2-0.1,0.4-0.1,0.6-0.1c0.6,0,1,0.2,1.3,0.5c0.3,0.3,0.3,0.8,0.2,1.4l-0.8,3.8h-1.4l0.7-3.5c0.1-0.4,0.1-0.6-0.1-0.8
		c-0.1-0.2-0.3-0.3-0.6-0.3c-0.1,0-0.1,0-0.2,0l-4.8,21c-0.5,2.1,0.8,3.8,2.9,3.9h17.3C52.3,52,50.9,50.3,51.4,48.2z M52.2,34.9
		L52,36h-2.7c-0.3,0.5-0.7,0.7-1.1,0.7h-1.4l0.3-1.1h0.3c0.2,0,0.4-0.1,0.5-0.2l0.7-1h1.9L50,34.9H52.2z M43.5,31.6H42l1.2-5.6h1.5
		L43.5,31.6z M45,25.3h-1.6l0.3-1.4h1.6L45,25.3z M45.5,29.3c0-0.1,0-0.3,0.1-0.4c0.2-0.9,0.6-1.6,1.2-2.2c0.6-0.5,1.3-0.8,2.2-0.8
		c0.7,0,1.2,0.2,1.6,0.6c0.4,0.4,0.6,0.9,0.6,1.6c0,0.1,0,0.2,0,0.4c0,0.1,0,0.3-0.1,0.4c-0.2,0.9-0.6,1.6-1.2,2.1
		c-0.6,0.5-1.3,0.8-2.2,0.8c-0.7,0-1.2-0.2-1.6-0.6c-0.4-0.4-0.6-0.9-0.6-1.6C45.5,29.5,45.5,29.4,45.5,29.3z M50,43.5h-3
		c-0.6,0-0.8-0.3-0.6-1l0.6-2.1h-1.2l0.3-1.1h1.2l0.3-1.1h-1.2l0.3-1.1h4.9l-0.3,1.1h-2l-0.3,1.1H51l-0.3,1.1h-1.9l-0.4,1.6
		c-0.1,0.3,0,0.4,0.4,0.4h1.6L50,43.5z"/>
	<path class="st3" d="M79.5,12l-15.5,0c0,0,0,0,0,0c0,0,0,0,0,0c-2.1,0.1-4.8,1.8-5.3,3.9L56.4,26c0.2,0.1,0.4,0.2,0.6,0.4
		c0.3,0.3,0.3,0.8,0.2,1.4l-0.8,3.8h-1.3l-0.6,2.6h0l-0.1,0.7c0,0,0.9-0.7,1.8-0.7h3.1l-1.2,4.3c-0.1,0.5-0.5,0.7-1.3,0.7h-3.5
		l-0.7,3.3c0,0,0,0,0.1,0h0.7l-0.3,0.9h-0.7l-1.1,4.7c-0.5,2.1,0.8,3.8,2.9,3.9h2.1H66h4.6c2.1-0.1,4.1-1.8,4.6-3.9l7.3-32.4
		C83,13.7,81.6,12,79.5,12z M58,40.2c-0.2,0.5-0.5,0.8-1.2,0.9h-0.9l0,1.2c0,0.2,0.2,0.3,0.5,0.3h0.8L57,43.5H55
		c-0.5,0-0.8-0.2-0.8-0.8l0.1-3.2H56l0,0.7h0.4c0.2,0,0.3-0.1,0.3-0.2l0.1-0.4h1.3L58,40.2z M66.6,26.6c1.2-0.6,1.8-0.2,2.5,0.3
		l0.7-0.4l1.5-0.1l-1.2,5.3l-1.8,0l-0.3-0.3C63.6,33.2,65,27.4,66.6,26.6z M69.8,35.1l-0.3,1.1h-1.3c-0.5,0-0.8-0.2-0.8-0.6
		l-0.1-1.4h1.8l0.1,0.7c0,0.2,0.1,0.2,0.3,0.2H69.8z M57.7,31.6l1.9-9.1h4c0.8,0,1.4,0.2,1.8,0.5c0.4,0.3,0.6,0.9,0.6,1.5v0
		c0,0.1,0,0.3,0,0.4c0,0.2,0,0.3-0.1,0.5c-0.2,0.9-0.6,1.6-1.2,2.1c-0.6,0.5-1.4,0.8-2.3,0.8h-2.2l-0.7,3.3H57.7z M64.5,43l-0.2,0.5
		h-1.8l0.2-0.5h-3.6l0.3-1.2h0.4l1.8-6.2h-0.4l0.4-1.3h1.9l-0.1,0.5c0,0,1-0.5,1.7-0.5c0.7,0,2.3,0,2.3,0l-0.4,1.3h-0.4l-1.8,6.2
		h0.4L64.8,43H64.5z M72.2,37.7h-1.8l-0.3,1.1h1.8L71.6,40h-2l-0.5,0.7h1l0.2,1.4c0,0.1,0.1,0.2,0.4,0.2H71l-0.3,1.1h-1.1
		c-0.6,0-0.9-0.2-0.9-0.6l-0.3-1.3L67.5,43c-0.2,0.4-0.5,0.6-1,0.5h-1.7l0.3-1.1h0.5c0.2,0,0.4-0.1,0.6-0.3l1.4-2h-1.8l0.3-1.2h2
		l0.3-1.1h-2l0.3-1.2h5.7L72.2,37.7z M74.4,32.7c-0.6,1.3-1.2,2-1.5,2.3c-0.3,0.3-1,1.1-2.6,1.1l0.1-1c1.3-0.4,2.1-2.3,2.5-3.1
		l-0.5-6l1,0h0.9l0.1,3.8L76,26h1.6L74.4,32.7z"/>
	<path class="st3" d="M62.7,37.2c0,0,0.8-0.3,1.5-0.4c0.2-0.6,0.4-1.3,0.4-1.3h-1.4L62.7,37.2z"/>
	<path class="st3" d="M57,36.3l0.2-0.8h-2.8l-0.3,1.2c0,0,0.5-0.3,1.2-0.3C56.1,36.2,57,36.3,57,36.3z"/>
	<path class="st3" d="M63.5,26.4c0.3-0.2,0.4-0.5,0.5-1c0-0.1,0-0.2,0-0.2c0-0.1,0-0.1,0-0.2c0-0.3-0.1-0.6-0.3-0.7
		c-0.2-0.1-0.6-0.2-1.1-0.2h-1.5l-0.5,2.7h1.8C62.8,26.8,63.2,26.7,63.5,26.4z"/>
	<polygon class="st3" points="61.4,41.7 62.8,41.7 63.2,40.5 61.8,40.5 	"/>
	<path class="st3" d="M56.2,38.1c0.2,0,0.3-0.1,0.3-0.2l0.2-0.6H54l-0.2,0.9H56.2z"/>
	<path class="st3" d="M62,39.8c0,0,0.9-0.4,1.5-0.5c0.2-0.7,0.4-1.3,0.4-1.3h-1.4L62,39.8z"/>
	<path class="st3" d="M67.4,30.6c0.5,0.2,1.1-0.4,1.4-1.2c0.3-0.8,0.1-1.7-0.4-1.8c-0.5-0.2-1.1,0.4-1.4,1.2
		C66.7,29.6,66.9,30.4,67.4,30.6z"/>
</g>
</svg>
