<svg id="Layer_1" xmlns="http://www.w3.org/2000/svg" viewBox="0 0 32 20"><style>.st0{fill:#010101;} .st1{fill-rule:evenodd;clip-rule:evenodd;fill:#FFFFFF;} .st2{fill-rule:evenodd;clip-rule:evenodd;fill:#144BA0;} .st3{fill:#FECF0C;} .st4{fill:#5B3C18;} .st5{fill:#FFFFFF;} .st6{fill:#D1D3D4;} .st7{fill:#0A67B2;} .st8{fill:#FAA634;} .st9{fill:#ED1C24;} .st10{fill:#FAA61A;} .st11{fill:#0078A9;} .st12{fill:#03A550;} .st13{fill:#0C72BA;} .st14{fill:#EB2227;} .st15{fill:#F58220;} .st16{fill:#14467A;} .st17{fill:#0078BF;} .st18{fill:#005189;} .st19{fill:#ED7220;} .st20{fill:#1E439B;} .st21{fill:#A7A9AC;}</style><path class="st5" d="M30.9 0H1.1C.5 0 0 .5 0 1.1v17.8c0 .6.5 1.1 1.1 1.1h29.8c.6 0 1.1-.5 1.1-1.1V1.1c0-.6-.5-1.1-1.1-1.1z"/><path class="st6" d="M30.9 0H1.1C.5 0 0 .5 0 1.1v17.8c0 .6.5 1.1 1.1 1.1h29.8c.6 0 1.1-.5 1.1-1.1V1.1c0-.6-.5-1.1-1.1-1.1zm.3 18.9c0 .2-.1.3-.3.3H1.1c-.2 0-.3-.1-.3-.3V1.1c0-.2.1-.3.3-.3h29.8c.2 0 .3.1.3.3v17.8z"/><path class="st7" d="M14.1 7l-1 6h1.6l1-6h-1.6zm10.2 0H23c-.6 0-.7.4-.7.4L20 13h1.6l.3-.9h2l.2.9h1.4l-1.2-6zm-1.9 3.9l.8-2.2.5 2.2h-1.3zm-4.5-2.2c0-.7 1.5-.6 2.2-.2l.2-1.3s-.7-.3-1.4-.3c-.8 0-2.6.3-2.6 2 0 1.5 2.2 1.6 2.2 2.4 0 .8-1.9.7-2.6.2l-.2 1.3s.7.3 1.8.3 2.7-.6 2.7-2.1c-.1-1.5-2.3-1.7-2.3-2.3zm-6-1.7l-1.5 4.1-.2-.9s-.4-1.1-1.4-2c-.3-.1-.5-.3-.7-.4L9.4 13H11l2.5-6h-1.6z"/><path class="st8" d="M9.7 7.5S9.6 7 9 7H6.5v.1s1.2.2 2.3 1.2c1.1.9 1.4 2 1.4 2l-.5-2.8z"/></svg>