<svg id="Layer_1" xmlns="http://www.w3.org/2000/svg" viewBox="0 0 32 10.2"><path d="M15.7 5.7c.1 0 .1.1.2.1s.2-.1.3-.1c.4-.4.8-.7 1.1-1.2 0-.1.1-.1.1-.2s0-.1-.1-.1c-.2-.2-.3-.5-.5-.7-.3-.3-.7-.8-1.1-.5-.4.3-.8.6-1.1 1-.1.1-.1.2-.1.2 0 .6.9 1.2 1.2 1.5zm11.9 1.7l.1.1c.4.1.9-.7 1.1-.9v-.1s0-.1-.1-.1c-.1-.4-.7-1.3-1.1-1.1-.3.2-.6.5-.8.8-.1.1-.1.1-.1.2.1.5.6.9.9 1.1zm3.7-.3c-3.1.6-6.3 1-9.5 1.1-1.6.1-3.2.1-4.8 0-.8 0-1.6-.1-2.4-.1-.8-.1-1.6-.1-2.4-.2C11.1 7.6 10 7.4 9 7c-1-.3-2-.8-3-1.2-.6-.2-1.2-.4-1.7-.5-.5-.1-.9-.2-1.4-.2-.8 0-1.6.2-2.2.8-.4.4-.7.9-.7 1.5-.1 2.5 3.2 2.4 3.2 2.4C.7 9.6.6 8.1.6 7.8c0-.7.4-1.2 1-1.5 1-.4 2-.3 3 0 1 .4 1.9.9 2.8 1.4.9.5 1.7.9 2.7 1.2.8.3 1.6.5 2.4.7 6.4 1.3 15.4.3 16.4.2s1.1-.5 1.4-.9c.4-.4 1.2-1.1 1.5-1.5.4-.5-.1-.4-.5-.3z"/><path d="M7.4 0h-.3c-.9 0-1.2 0-1.4.3v1.1H2.4V2h3.4v1.3H3.3v.6h5.1c0 .6-.6 1.6-1.3 2.5 0 0 .1 0 .1.1.1 0 .2.1.4.1.1 0 .3 0 .4.1.1.1.3.1.4.2h.1c1.1-1.4 1.6-2.9 1.7-3.6H7.4V1.9h3.5v-.5H7.4V0zm7.1 0c-.8 0-1.2 0-1.3.3 0 .1-.1.8-1 1.7-.8.8-1.3 1.1-1.3 1.1s0 .1.1.2.1.2.1.2.5-.2 1.2-.5v4.9c.5 0 1.1.1 1.7.2V1.7c.4-.5.7-1 .8-1.7h-.3zm14.1.7c-.3 0-1.5 0-2.7.1V0h-.3c-.8 0-1.2 0-1.3.3v.6c-.8 0-1.4.1-1.7.1V.6h-.3c-.8 0-1.2 0-1.3.3V3h3.4v1.5h-2.3v.6h2.3v3c.6 0 1.1-.1 1.7-.1V5.1h2.5v-.6h-2.5V3H29v-.3c.1 0 .4 0 .4-.4.1-.4.1-.7.1-.8-.2-.2-.2-.8-.9-.8zm-.9 1.8h-5.3v-1c.6 0 4.8-.2 5.1-.2.3 0 .4.1.3.3 0 .2 0 .7-.1.9zM19.2 0h-.3c-.8 0-1.2 0-1.3.3V2h-3.2v.6h3.2v5.7h1.7V2.5h.9v-.6h-.9V0zM7.1 7.5c-.2-.2-.4-.3-.7-.4-1 1-2.2 1.9-3.3 1.9-1 0-2-.5-2-1.7 0-.9.9-1.2 1.3-1.4-.1.1-.2.1-.3.1H2c-.1 0-.2.1-.3.1-.1 0-.2.1-.3.1h-.1c-.1.2-.2.3-.2.3-.5.5-.5.9-.5 1.2 0 .4.1 1.9 2.6 2h.1c1.8 0 3.3-.9 4.5-2 0 0-.1 0-.1-.1-.3 0-.4-.1-.6-.1z"/></svg>
