<svg xmlns="http://www.w3.org/2000/svg" viewBox="0.9 195 612 387.9"><path fill="#FFF" d="M605.8 555.8c0 11-8.9 19.9-19.9 19.9H28c-11 0-19.9-8.9-19.9-19.9V222c0-11 8.9-19.9 19.9-19.9h557.9c11 0 19.9 8.9 19.9 19.9v333.8z"/><path fill="#D0D2D3" d="M585.9 582.8H28C13.1 582.8.9 570.7.9 555.7V222c0-14.9 12.1-27 27.1-27h557.9c14.9 0 27 12.1 27 27.1v333.7c0 14.9-12.1 27-27 27zM28 209.2c-7 0-12.8 5.7-12.8 12.8v333.7c0 7.1 5.7 12.8 12.8 12.8h557.9c7 0 12.8-5.7 12.8-12.8V222c0-7.1-5.7-12.8-12.8-12.8H28z"/><path d="M393.9 409.6h46V422H408v10.7h31v10.9h-31v11.3h31.9v12h-46M528.7 432c17.3.9 18.7 9.5 18.7 18.7 0 10.7-8.8 16.5-18 16.5h-29.5v-12.3h23c3.9 0 9.7 0 9.7-5.5 0-2.6-1-4.3-5.2-4.7-1.8-.3-8.7-.6-9.7-.7-15.6-.4-19.3-8.2-19.3-17.6 0-10.7 7.6-16.6 16.8-16.6h29.5V422h-21.6c-4.9 0-10.2-.6-10.2 5 0 3.5 2.6 4.2 5.9 4.5 1.2.1 8.9.5 9.9.5zm-53 0c17.3.9 18.7 9.5 18.7 18.7 0 10.7-8.8 16.5-18 16.5h-29.5v-12.3h23c3.9 0 9.7 0 9.7-5.5 0-2.6-1-4.3-5.2-4.7-1.9-.3-8.7-.6-9.7-.7-15.6-.4-19.2-8.2-19.2-17.6 0-10.7 7.5-16.6 16.8-16.6h29.5V422h-21.6c-4.9 0-10.2-.6-10.2 5 0 3.5 2.6 4.2 5.9 4.5 1.1.1 8.8.5 9.8.5zM309 409.8h-49.4l-16.1 17.8-15.6-17.9h-55.4V467h53.6l16.9-19 16.5 19.1h27v-19.4h18.9c7.3 0 20.6-.2 20.6-20.3 0-14.4-10.1-17.6-17-17.6zm-90.2 45.1h-32.4v-11.3h31v-10.9h-31V422l34.2.1 13.7 15.6-15.5 17.2zm53.7 6.6l-20.2-23.9 20.2-22.4v46.3zm31.8-25.7h-17.5V422h17.6c5.9 0 7.7 3.8 7.7 6.6 0 3.9-2.1 7.2-7.8 7.2zm72.6 5.2c7.7-3.8 9.7-8.9 9.7-15.9 0-12.3-10-15.3-16.9-15.3h-36.6v57.3h14.1v-20.2h18.4c4.9 0 6.8 4.9 6.9 9.7l.4 10.5h13.7l-.5-11.8c0-9.2-2.5-13.6-9.2-14.3zm-12.1-6h-17.5v-13h17.6c5.9 0 7.7 3.8 7.7 6.6 0 3.9-2.1 6.4-7.8 6.4zm-26-124.3h14.1V368h-14.1zm-115.1.1h46v12.3h-31.9v10.8h31v10.9h-31v11.3h31.9v12h-46m98-26.1c7.7-3.8 9.7-8.9 9.7-15.9 0-12.3-10-15.3-16.9-15.3H278v57.3h14.1v-20.2h18.4c4.9 0 6.8 4.9 6.9 9.7l.4 10.5h13.7l-.5-11.8c0-9.2-2.6-13.5-9.3-14.3zm-12.1-5.9h-17.5v-13h17.6c5.9 0 7.7 3.8 7.7 6.6 0 3.8-2 6.4-7.8 6.4zm-118.3-25.3L174 349.2l-17.2-38.4h-22.1V366l-24.6-55.2H91.6l-25.1 57.3h14.8l5.5-12.8h28.1l5.6 12.8h28.3v-42.5l18.8 42.5h12.8l19.2-41.8v41.8h14.1v-57.3h-22.4zm-99.1 32.1l8.4-20 8.7 20H92.2zM498 310.8v39.7l-23.7-39.7h-20.8v53.8l-24-53.8H411l-19.4 44.4s-8.2 0-9-.2c-3.4-.7-8.7-3.1-8.8-13.2v-4.2c0-13.4 7.3-14.4 16.6-14.4h8.7v-12.4h-18.4c-6.4 0-20.3 4.9-20.8 28.4-.3 15.9 6.6 28.9 22.2 28.9h18.5l5.5-12.8h28.1l5.6 12.8h27.7v-41.9l25.3 41.9H512v-57.3h-14zM411.6 343l8.4-20 8.8 20h-17.2z" fill="#0078A9"/></svg>