<?xml version="1.0" encoding="utf-8"?>
<!-- Generator: Adobe Illustrator 21.0.0, SVG Export Plug-In . SVG Version: 6.00 Build 0)  -->
<svg version="1.1" id="Layer_1" xmlns="http://www.w3.org/2000/svg" xmlns:xlink="http://www.w3.org/1999/xlink" x="0px" y="0px"
	 viewBox="0 0 16 16" style="enable-background:new 0 0 16 16;" xml:space="preserve">
<g>
	<g>
		<path d="M8,0C3.6,0,0,3.6,0,8s3.6,8,8,8s8-3.6,8-8S12.4,0,8,0z M11.7,10.7c0.2,0.2,0.3,0.4,0.3,0.5c0,0.5-0.3,0.8-0.8,0.8
			c-0.2,0-0.4-0.1-0.5-0.2L8,9l-2.6,2.6C5.1,11.9,4.9,12,4.8,12C4.3,12,4,11.7,4,11.2c0-0.2,0.1-0.4,0.2-0.5L6.9,8L4.3,5.3
			C4,5,4,4.6,4.3,4.3s0.7-0.3,1,0L8,7l2.7-2.7C11,4,11.4,4,11.7,4.3c0.3,0.3,0.3,0.7,0,1L9,8L11.7,10.7z"/>
	</g>
</g>
</svg>
