<svg xmlns="http://www.w3.org/2000/svg" viewBox="0 0 16 16"><path d="M8 0C3.6 0 0 3.6 0 8s3.6 8 8 8 8-3.6 8-8-3.6-8-8-8zm0 14.8c-3.7 0-6.8-3-6.8-6.8s3-6.8 6.8-6.8 6.8 3 6.8 6.8-3.1 6.8-6.8 6.8zm0-4.1c-.3 0-.5.1-.7.3s-.3.4-.3.6c0 .3.1.5.3.7.2.2.4.2.6.2.2 0 .4-.1.6-.2.2-.2.3-.4.3-.7 0-.3-.1-.5-.3-.6-.1-.2-.3-.3-.5-.3zm1.6-7c-.4-.2-1-.3-1.5-.3-.6 0-1.2.1-1.6.4-.5.2-.9.6-1.1.9-.3.4-.4.8-.4 1.2 0 .2.1.4.2.5.2.2.3.2.6.2.4 0 .6-.2.8-.7.1-.4.3-.8.5-1 .2-.2.5-.3 1-.3.4.1.7.2.9.4.2.2.4.5.4.8 0 .2 0 .3-.1.5l-.3.3c-.1.2-.3.3-.6.6-.3.2-.5.4-.7.6-.2.2-.3.4-.4.7-.1.2-.2.5-.2.8 0 .3.1.5.2.6.1.1.3.2.5.2.4 0 .6-.2.7-.6 0-.2.1-.3.1-.4.1-.1.2-.1.2-.2s.1-.2.2-.3l.3-.3c.5-.4.8-.8 1-.9.2-.2.4-.4.5-.7.2-.3.2-.6.2-.9 0-.4-.1-.8-.4-1.2-.2-.4-.5-.7-1-.9z"/></svg>