<?xml version="1.0" encoding="utf-8"?>
<!-- Generator: Adobe Illustrator 19.2.1, SVG Export Plug-In . SVG Version: 6.00 Build 0)  -->
<svg version="1.1" id="Layer_1" xmlns="http://www.w3.org/2000/svg" xmlns:xlink="http://www.w3.org/1999/xlink" x="0px" y="0px"
	 viewBox="0 0 32 32" style="enable-background:new 0 0 32 32;" xml:space="preserve">
<title>REVicon_REVicon_labels_error_32px</title>
<path d="M16,0C7.2,0,0,7.2,0,16s7.2,16,16,16s16-7.2,16-16S24.8,0,16,0z M16,30.5C8,30.5,1.5,24,1.5,16S8,1.5,16,1.5S30.5,8,30.5,16
	C30.5,24,24,30.5,16,30.5z M15.9,21.4c-0.9,0-1.6,0.7-1.6,1.5c0,0,0,0,0,0c0,0.4,0.1,0.9,0.5,1.2c0.6,0.6,1.6,0.6,2.3,0
	c0.3-0.3,0.5-0.7,0.5-1.2c0-0.4-0.2-0.8-0.5-1.1C16.7,21.5,16.3,21.3,15.9,21.4z M16,5.4c-0.5,0-0.9,0.2-1.2,0.5
	c-0.3,0.4-0.5,0.9-0.5,1.4c0,0.5,0,1.4,0.1,2.6l0.4,6.3c0,0.6,0.2,1.1,0.4,1.7c0.1,0.3,0.4,0.4,0.6,0.4c0.3,0,0.5-0.1,0.7-0.4
	c0.2-0.5,0.3-1.1,0.4-1.6l0.6-6.4c0.1-0.6,0.1-1.1,0.1-1.7c0-0.7-0.1-1.4-0.3-2.1C17.1,5.8,16.8,5.4,16,5.4z"/>
</svg>
