<svg xmlns="http://www.w3.org/2000/svg" viewBox="-305 297 99.9 100"><path d="M-225.7 297h-58.7c-11.4 0-20.6 9.3-20.6 20.6v58.8c0 11.4 9.3 20.6 20.6 20.6h58.7c11.4 0 20.6-9.3 20.6-20.6v-58.7c0-11.4-9.3-20.7-20.6-20.7zm-58.8 7.7h58.7c7.1 0 12.9 5.8 12.9 12.9V333H-229c-5-9.4-14.8-15.9-26.2-15.9s-21.2 6.5-26.2 15.9h-16.1v-15.4c.1-7.1 5.9-12.9 13-12.9zm29.4 20.2c12.2 0 22.1 9.9 22.1 22.1s-9.9 22.1-22.1 22.1c-12.2 0-22.1-9.9-22.1-22.1s10-22.1 22.1-22.1zm29.4 64.4h-58.7c-7.1 0-12.9-5.8-12.9-12.9v-35.6h13.1c-.4 2-.7 4.1-.7 6.3 0 16.4 13.4 29.8 29.8 29.8s29.8-13.4 29.8-29.8c0-2.2-.3-4.2-.7-6.3h13.1v35.6c.1 7.1-5.7 12.9-12.8 12.9z"/><circle cx="-255.1" cy="347" r="9.2"/></svg>