<svg xmlns="http://www.w3.org/2000/svg" viewBox="0.9 195 612 387.9"><path fill="#FFF" d="M605.8 555.8c0 11-8.9 19.9-19.9 19.9H28c-11 0-19.9-8.9-19.9-19.9V222c0-11 8.9-19.9 19.9-19.9h557.9c11 0 19.9 8.9 19.9 19.9v333.8z"/><path fill="#D0D2D3" d="M585.9 582.8H28C13.1 582.8.9 570.7.9 555.7V222c0-14.9 12.1-27 27.1-27h557.9c14.9 0 27 12.1 27 27.1v333.7c0 14.9-12.1 27-27 27zM28 209.2c-7 0-12.8 5.7-12.8 12.8v333.7c0 7.1 5.7 12.8 12.8 12.8h557.9c7 0 12.8-5.7 12.8-12.8V222c0-7.1-5.7-12.8-12.8-12.8H28z"/><path fill="#00A44F" d="M413.4 401.9c.7 22.3 1.5 45.3.4 68-.7 8.9-6.3 17.5-14.5 22.7-6.3 4.1-14.1 4.5-22.3 4.8l-29.5-.4-.2-189.1c1.5-12.6 10.8-23.4 22.7-26.8 14.5-1.9 27.9-1.1 43.1-1.5l.7 9.7v107.4l-.4.4v4.8z"/><path fill="#0872B9" d="M199.4 394.8v-89.2c1.9-10 10-19.3 19.7-23 14.5-4.5 31.2-1.8 46.1-2.2.7 14.5 0 32.7.4 45.3l.7 116.3c-1.9 17.8 4.8 42-17.5 52-14.1 7.1-33.1 2.6-49 4.1l-.4-2.6V394.8z"/><path fill="#FFF" d="M199.4 398.5c5.9 7.8 14.1 13.7 24.1 14.1 12.3 1.1 28.2 2.2 36.4-9.3 5.6-5.9 2.2-14.1 3.4-21.9l-.4-14.1c-7.1-1.5-13.4 0-21.6-.4-4.1 15.2 6.7 32.3-10.8 40.1-4.1 1.1-10 .4-14.1-2.2-6.7-1.5-3-12.3-11.9-9.3l-5.2-.7v3.7z"/><path fill="#EA2127" d="M339.5 292.7l.4 180.9c-2.6 8.5-9.3 17.8-18.6 21.2-14.1 4.8-31.6 2.6-47.2 2.6l-.7-190.6c.7-8.9 6.7-16.7 14.5-21.5 5.6-3.7 12.3-4.8 19.3-5.2h31.6l.7 12.6z"/><path fill="#FFF" d="M336.5 367.3c.7 2.2 0 4.1.4 6.7-11.1-3-24.9-6.3-34.9 1.9-3.7 4.5-5.9 8.9-5.6 14.9 1.1 6.7 5.2 13 11.5 15.6 9.7 3 19.7.4 28.6-1.9.4 1.9.7 4.5 0 5.9h-42.7c-7.4-1.5-13.4-5.6-16.7-13-3-7.1-1.5-16.7 3.7-22.7 4.5-5.2 10.8-8.2 17.8-7.8l37.9.4zm76.9 34.6c-1.1 4.5-4.8 8.5-9.3 9.3h-52l-1.9-.7c0-14.9-.4-29 .4-43.5h33.1c10.4 1.1 21.9-3.3 26.8 6.3 1.5 3.3 1.1 7.8-1.5 10.4-1.5 2.6-4.8 3-5.6 4.8 4.1 1.1 8.5 4.5 10 8.5v4.9zm-44.5-30.5c-1.1 4.1-1.1 9.7-.4 14.1 7.8-.4 17.8 2.6 23-3.3 1.9-2.2.7-5.9-.4-7.8-5.9-5.2-14.8-1.9-22.2-3zm20 20.4c-7.1-1.1-14.1-.7-20.8-.4-.4 5.6 0 10 .7 15.2 7.4 0 15.6 1.1 22.3-2.2 1.9-1.8 3-4.8 2.2-7.4-.3-2.2-2.2-4-4.4-5.2z"/></svg>