<svg id="Layer_1" xmlns="http://www.w3.org/2000/svg" viewBox="0 0 16 16"><style>.st0{fill:#010101;} .st1{fill-rule:evenodd;clip-rule:evenodd;fill:#FFFFFF;} .st2{fill-rule:evenodd;clip-rule:evenodd;fill:#144BA0;} .st3{fill:#FECF0C;} .st4{fill:#5B3C18;} .st5{fill:#FFFFFF;} .st6{fill:#D1D3D4;} .st7{fill:#0A67B2;} .st8{fill:#FAA634;} .st9{fill:#ED1C24;} .st10{fill:#FAA61A;} .st11{fill:#0078A9;} .st12{fill:#03A550;} .st13{fill:#0C72BA;} .st14{fill:#EB2227;} .st15{fill:#F58220;} .st16{fill:#14467A;} .st17{fill:#0078BF;} .st18{fill:#005189;} .st19{fill:#ED7220;} .st20{fill:#1E439B;} .st21{fill:#A7A9AC;}</style><path d="M7.2 10.7v1.9h1.7v-1.9c.5-.3.8-.8.8-1.4 0-.9-.7-1.6-1.7-1.6s-1.7.7-1.7 1.6c0 .6.4 1.2.9 1.4zm8.2-6.4h-2.7C12.6 1.9 10.5-.1 8 0 6.7 0 5.6.5 4.7 1.4c-.7.8-1.1 1.8-1.2 2.9H.6c-.3 0-.6.3-.6.6v10.4c0 .4.3.7.6.7h14.8c.3 0 .6-.3.6-.6V4.9c0-.3-.3-.6-.6-.6zm-9.8-2c.6-.7 1.5-1 2.4-1.1h.1c1.8 0 3.2 1.3 3.4 3.1H4.8c0-.7.3-1.4.8-2zm9.2 12.5H1.2V5.6h13.5v9.2z"/></svg>