<svg xmlns="http://www.w3.org/2000/svg" viewBox="0 0 50 50"><path d="M29.1 35.8c1.8-2.3 2.9-5.1 2.9-8.2 0-7.3-5.9-13.2-13.2-13.2S5.6 20.3 5.6 27.6c0 3.1 1.1 6 2.9 8.2-2.7 1.4-5.1 3.3-7.1 5.6-.5.6-.5 1.6.2 2.1.3.2.6.4 1 .4s.8-.2 1.1-.5c2-2.4 4.4-4.1 7.1-5.3 2.2 1.7 5 2.8 8 2.8s5.8-1 8-2.8c2.7 1.2 5.1 3 7.1 5.3.3.4.7.5 1.1.5.3 0 .7-.1 1-.4.6-.5.7-1.5.2-2.1-1.9-2.3-4.4-4.2-7.1-5.6zM8.6 27.6c0-5.6 4.6-10.2 10.2-10.2S29 22 29 27.6s-4.6 10.2-10.2 10.2S8.6 33.2 8.6 27.6zM47.5 14.3h-6.7V7.6c0-.8-.7-1.5-1.5-1.5s-1.5.7-1.5 1.5v6.7H31c-.8 0-1.5.7-1.5 1.5s.7 1.5 1.5 1.5h6.8v6.8c0 .8.7 1.5 1.5 1.5s1.5-.7 1.5-1.5v-6.8h6.7c.8 0 1.5-.7 1.5-1.5s-.7-1.5-1.5-1.5z"/></svg>