<svg id="Layer_1" xmlns="http://www.w3.org/2000/svg" viewBox="0 0 32 9"><style>.st0{fill:#010101;} .st1{fill-rule:evenodd;clip-rule:evenodd;fill:#FFFFFF;} .st2{fill-rule:evenodd;clip-rule:evenodd;fill:#144BA0;} .st3{fill:#FECF0C;} .st4{fill:#5B3C18;} .st5{fill:#FFFFFF;} .st6{fill:#D1D3D4;} .st7{fill:#0A67B2;} .st8{fill:#FAA634;} .st9{fill:#ED1C24;} .st10{fill:#FAA61A;} .st11{fill:#0078A9;} .st12{fill:#03A550;} .st13{fill:#0C72BA;} .st14{fill:#EB2227;} .st15{fill:#F58220;} .st16{fill:#14467A;} .st17{fill:#0078BF;} .st18{fill:#005189;} .st19{fill:#ED7220;} .st20{fill:#1E439B;} .st21{fill:#A7A9AC;}</style><path class="st16" d="M17.5 1.6h-1.2c-.2 0-.5.2-.6.4 0 0-1.4 2.4-1.5 2.6-.1.1-.1 0-.2 0 0-.1-.4-2.6-.4-2.6 0-.2-.3-.4-.5-.4h-.9c-.2 0-.3.2-.3.4 0 0 .7 3.7.8 4.6.1.5 0 .6 0 .6l-.9 1.5c0 .1 0 .3.2.3h1c.2 0 .5-.2.6-.4l3.8-6.5s.4-.5.1-.5zM6.3 1C6.2.7 6 .5 5.8.4 5.6.3 5.3.2 5 .1 4.6 0 4.3 0 3.8 0h-2c-.2 0-.4.2-.4.4L0 6.2c0 .2.1.4.3.4h1c.2 0 .4-.2.5-.4l.3-1.4c0-.2.2-.4.5-.4h.3c1.2 0 2.1-.2 2.7-.7.7-.5 1-1.1 1-1.9-.1-.3-.2-.6-.3-.8zM4.2 2.9c-.2.2-.6.3-1.2.3h-.2c-.2 0-.3-.2-.3-.4l.3-1.2c0-.2.3-.4.5-.4h.3c.4 0 .6.1.8.2.2.1.3.3.3.6 0 .4-.2.7-.5.9zm6.7-1.1c-.3-.2-.9-.3-1.7-.3-.4 0-.8 0-1.2.1-.3 0-.3.1-.5.1-.3.1-.3.4-.3.4l-.2.5c0 .3.1.3.2.3.2 0 .2-.1.6-.2.3-.1.6-.1.9-.1.4 0 .7 0 .9.1.2.1.3.2.3.4v.1s0 .1-.1.1c-.5 0-.9.1-1.4.2-.6.1-1 .2-1.3.4-.4.1-.7.3-.9.6-.1.3-.2.6-.2 1s.1.7.4.9c.3.2.6.3 1 .3.3 0 .5 0 .6-.1.1 0 .3-.1.5-.2.1-.1.3-.1.4-.2s.2-.2.4-.2v.2c0 .2.1.3.3.4h.8c.2 0 .4-.2.4-.4l.7-3v-.4c0-.5-.2-.8-.6-1zM9.6 4.4c0 .1-.1.6-.2.8 0 .1-.1.2-.2.2-.1.1-.2.1-.3.2-.2.1-.4.1-.5.1-.2 0-.4 0-.5-.1-.2-.1-.3-.2-.3-.4s0-.3.1-.5c.2 0 .3-.1.5-.2s.4-.1.6-.1c.2 0 .7-.1.7-.1.1 0 .1 0 .1.1z"/><path class="st17" d="M28.4 1.8c-.4-.2-.9-.3-1.7-.3-.4 0-.8 0-1.2.1-.3 0-.3.1-.5.1-.4.1-.4.4-.4.4l-.1.5c-.1.3.1.3.2.3.2 0 .2-.1.6-.2.3-.1.6-.1.9-.1.4 0 .7 0 .9.1.2.1.3.2.3.4v.1s0 .1-.1.1c-.5 0-.9.1-1.4.2-.5.1-.9.2-1.2.3-.4.2-.6.4-.8.7-.2.3-.3.6-.3 1s.1.7.4.9c.3.2.6.3 1 .3.3 0 .5 0 .6-.1.1 0 .3-.1.5-.2.1-.1.3-.1.4-.2.1-.1.2-.2.4-.2v.2c0 .2.1.3.3.4h.8c.2 0 .4-.2.4-.4l.7-3v-.4c-.2-.5-.3-.8-.7-1zM27 4.4c0 .1-.1.6-.2.8 0 .1-.1.2-.2.2-.1.1-.2.1-.4.2s-.3.1-.5.1-.4 0-.5-.1c-.1-.1-.2-.2-.2-.4s0-.3.1-.5c.1-.1.2-.2.4-.3.2-.1.4-.1.6-.1.2 0 .7-.1.7-.1.2.1.3.1.2.2zM23.8 1c-.1-.2-.3-.4-.5-.6-.2-.1-.5-.2-.8-.3-.4 0-.8-.1-1.2-.1h-2c-.2 0-.4.2-.5.4l-1.4 5.9c0 .2.1.4.3.4h1c.2 0 .4-.2.5-.4l.3-1.4c0-.2.3-.4.5-.4h.3c1.2 0 2.1-.2 2.7-.7.7-.5 1-1.1 1-1.9-.1-.4-.1-.7-.2-.9zm-2.1 1.9c-.3.2-.7.3-1.2.3h-.2c-.2 0-.3-.2-.3-.4l.3-1.2c0-.2.3-.4.5-.4h.3c.4 0 .6.1.8.2.1.2.2.3.2.6 0 .4-.1.7-.4.9zm10-2.8h-.9c-.2 0-.4.1-.4.3v.2L29.1 6c0 .1 0 .2-.1.2 0 .2.1.3.3.4h.9c.2 0 .4-.1.4-.3L32 .4c0-.2-.1-.3-.3-.3z"/></svg>