<svg id="Layer_1" xmlns:xlink="http://www.w3.org/1999/xlink"
	 viewBox="0 0 16 16">
<path class="st0" d="M15.7,11.8c-1.4-0.3-2.6-1.3-3.2-2.7l0,0c-0.1-0.2-0.1-0.4-0.1-0.6c0.1-0.3,0.6-0.4,0.9-0.5l0.2-0.1
	c0.5-0.2,0.8-0.5,0.8-0.8c0-0.3-0.2-0.5-0.5-0.6l0,0c-0.1,0-0.2-0.1-0.3-0.1c-0.1,0-0.2,0-0.3,0.1c-0.2,0.1-0.4,0.2-0.7,0.2
	c-0.1,0-0.2,0-0.3-0.1V6.3l0,0c0.2-1.1,0.1-2.2-0.2-3.3c-0.7-1.6-2.3-2.6-4-2.5H7.9c-1.7,0-3.3,1-4,2.5C3.6,4.1,3.6,5.2,3.7,6.2v0.4
	c-0.1,0-0.2,0.1-0.3,0.1c-0.3,0-0.5-0.1-0.7-0.2c-0.1,0-0.2-0.1-0.2-0.1C2.1,6.4,1.7,6.7,1.6,7c0,0.2,0.1,0.6,0.8,0.9L2.7,8
	C3,8.1,3.4,8.2,3.6,8.5c0.1,0.2,0,0.4-0.1,0.6l0,0c-0.6,1.4-1.8,2.4-3.2,2.7C0.1,11.8,0,12,0,12.1c0,0,0,0.1,0,0.1
	c0.2,0.4,0.9,0.7,2.1,0.9c0.1,0.1,0.1,0.2,0.1,0.4c0,0.1,0,0.2,0.1,0.4c0,0.2,0.2,0.3,0.4,0.3c0.1,0,0.2,0,0.4-0.1
	C3.4,14.1,3.6,14,3.9,14c0.2,0,0.4,0,0.6,0.1c0.4,0.1,0.8,0.3,1.2,0.6c0.6,0.5,1.4,0.8,2.2,0.9h0.2c0.8,0,1.6-0.3,2.2-0.9
	c0.3-0.3,0.7-0.5,1.1-0.6c0.2,0,0.4,0,0.6-0.1c0.3,0,0.6,0,0.9,0.1c0.1,0,0.2,0,0.4,0l0,0c0.2,0,0.3-0.1,0.4-0.3
	c0-0.1,0.1-0.2,0.1-0.4c0-0.1,0.1-0.3,0.1-0.4c1.2-0.2,1.9-0.5,2.1-0.9c0,0,0-0.1,0-0.1C15.9,12,15.9,11.8,15.7,11.8z"/>
</svg>
