<svg xmlns="http://www.w3.org/2000/svg" viewBox="0 0 483.16 71.54"><path d="M74.06 1.18h51.89V12.1h-39.8v17.97h39.8v10.92h-39.8v18.64h39.8v10.92H74.06V1.18zm357.2 0h51.89V12.1h-39.8v17.97h39.63v10.92h-39.63v18.64h39.63v10.92H431.1V1.18h.16zM30.06 35.6c8.73 0 14.27-4.53 14.27-11.59v-.17c0-7.39-5.37-11.42-14.44-11.42H12.26v58.11H0V1.18h30.9c8.73 0 15.62 2.52 19.98 6.89 3.69 3.69 5.71 8.9 5.71 14.95v.17c0 11.42-6.89 18.31-16.46 20.99l18.64 26.37H44.34L19.82 35.6m192.96.51v-.17C212.78 16.46 227.89 0 249.05 0c21.33 0 36.11 16.12 36.11 35.6v.17c0 19.48-15.11 35.77-36.27 35.77-21.33.17-36.11-15.95-36.11-35.43zm59.78 0v-.17c0-13.44-9.74-24.69-23.51-24.69s-23.34 10.92-23.34 24.52v.17c0 13.44 9.74 24.69 23.51 24.69 13.6-.17 23.34-11.09 23.34-24.52zm29.22-34.93h12.26v58.27h36.44v11.08h-48.7V1.18zm46.52 0h13.44l20.82 53.24 20.82-53.24h13.1l-28.55 69.86h-10.75L348.3 1.18zm-209.75 0h13.44l20.82 53.24 20.82-53.24h13.1l-28.72 69.86h-10.75L138.55 1.18z"/></svg>