<svg xmlns="http://www.w3.org/2000/svg" viewBox="0 0 32 32"><path d="M14.31 11.17l1.07-1.05v8a.63.63 0 0 0 1.25 0v-8l1.07 1.05a.62.62 0 1 0 .88-.89l-2.13-2.1a.62.62 0 0 0-.88 0l-2.13 2.1a.62.62 0 1 0 .87.89zm9.07 2H19a.62.62 0 0 0 0 1.25h3.73v8.38H9.25v-8.43h3.62a.63.63 0 0 0 0-1.25H8.63a.63.63 0 0 0-.62.63v9.63a.63.63 0 0 0 .63.63h14.74a.63.63 0 0 0 .62-.63v-9.63a.63.63 0 0 0-.62-.63z"/><path d="M16 1A15 15 0 1 1 1 16 15 15 0 0 1 16 1m0-1a16 16 0 1 0 16 16A16 16 0 0 0 16 0z" fill="#e4e4e4"/></svg>