<svg id="Layer_1" xmlns="http://www.w3.org/2000/svg" viewBox="0 0 32 20"><style>.st0{fill:#010101;} .st1{fill-rule:evenodd;clip-rule:evenodd;fill:#FFFFFF;} .st2{fill-rule:evenodd;clip-rule:evenodd;fill:#144BA0;} .st3{fill:#FECF0C;} .st4{fill:#5B3C18;} .st5{fill:#FFFFFF;} .st6{fill:#D1D3D4;} .st7{fill:#0A67B2;} .st8{fill:#FAA634;} .st9{fill:#ED1C24;} .st10{fill:#FAA61A;} .st11{fill:#0078A9;} .st12{fill:#03A550;} .st13{fill:#0C72BA;} .st14{fill:#EB2227;} .st15{fill:#F58220;} .st16{fill:#14467A;} .st17{fill:#0078BF;} .st18{fill:#005189;} .st19{fill:#ED7220;} .st20{fill:#1E439B;} .st21{fill:#A7A9AC;}</style><path class="st5" d="M30.9 0H1.1C.5 0 0 .5 0 1.1v17.8c0 .6.5 1.1 1.1 1.1h29.8c.6 0 1.1-.5 1.1-1.1V1.1c0-.6-.5-1.1-1.1-1.1z"/><path class="st6" d="M30.9 0H1.1C.5 0 0 .5 0 1.1v17.8c0 .6.5 1.1 1.1 1.1h29.8c.6 0 1.1-.5 1.1-1.1V1.1c0-.6-.5-1.1-1.1-1.1zm.3 18.9c0 .2-.1.3-.3.3H1.1c-.2 0-.3-.1-.3-.3V1.1c0-.2.1-.3.3-.3h29.8c.2 0 .3.1.3.3v17.8z"/><path class="st15" d="M8.8 20h22.1c.6 0 1.1-.5 1.1-1.1v-7.5c-2.2 1.4-10.2 6-23.2 8.6zm7.5-8.5c.9 0 1.6-.7 1.6-1.6 0-.9-.7-1.6-1.6-1.6-.9 0-1.6.7-1.6 1.5.1 1.1.7 1.7 1.6 1.7z"/><path d="M7.3 8.5h-.9v3h.9c.5 0 .8-.1 1.1-.3.3-.3.5-.7.5-1.1 0-1-.7-1.6-1.6-1.6zm.7 2.2c-.2.2-.4.3-.8.3H7V9h.2c.4 0 .6.1.8.2.2.2.3.5.3.8 0 .3-.1.6-.3.7zm1.2.8h.6v-3h-.6v3zm2-1.9c-.4-.1-.5-.2-.5-.4s.2-.3.4-.3.3.1.5.2l.3-.4c-.3-.2-.6-.3-.9-.3-.5 0-.9.4-.9.9 0 .4.2.6.7.8.2.1.3.1.4.2.1.1.2.2.2.3 0 .2-.2.4-.5.4s-.5-.1-.6-.4l-.3.4c.3.4.6.6 1 .6.6 0 1-.4 1-1 0-.5-.2-.7-.8-1zm1 .4c0 .9.7 1.6 1.6 1.6.3 0 .5 0 .7-.2v-.7c-.2.2-.4.3-.7.3-.6 0-1-.4-1-1s.4-1 1-1c.3 0 .5.1.7.3v-.7c-.3-.1-.5-.2-.7-.2-.9 0-1.6.7-1.6 1.6zm7.1.5l-.8-2h-.6l1.3 3.1h.3l1.3-3.1h-.6l-.9 2zm1.7 1h1.7V11h-1.1v-.8h1v-.5h-1V9h1.1v-.5H21v3zm3.2-1.3c.4-.1.7-.4.7-.8 0-.6-.4-.9-1.1-.9H23v3h.6v-1.2h.1l.8 1.2h.7l-1-1.3zm-.4-.3h-.2V9h.2c.4 0 .6.2.6.4-.1.3-.3.5-.6.5z"/></svg>