<svg id="Layer_1" xmlns="http://www.w3.org/2000/svg" viewBox="0 0 32 20"><style>.st0{fill:#010101;} .st1{fill-rule:evenodd;clip-rule:evenodd;fill:#FFFFFF;} .st2{fill-rule:evenodd;clip-rule:evenodd;fill:#144BA0;} .st3{fill:#FECF0C;} .st4{fill:#5B3C18;} .st5{fill:#FFFFFF;} .st6{fill:#D1D3D4;} .st7{fill:#0A67B2;} .st8{fill:#FAA634;} .st9{fill:#ED1C24;} .st10{fill:#FAA61A;} .st11{fill:#0078A9;} .st12{fill:#03A550;} .st13{fill:#0C72BA;} .st14{fill:#EB2227;} .st15{fill:#F58220;} .st16{fill:#14467A;} .st17{fill:#0078BF;} .st18{fill:#005189;} .st19{fill:#ED7220;} .st20{fill:#1E439B;} .st21{fill:#A7A9AC;}</style><path class="st5" d="M30.9 0H1.1C.5 0 0 .5 0 1.1v17.8c0 .6.5 1.1 1.1 1.1h29.8c.6 0 1.1-.5 1.1-1.1V1.1c0-.6-.5-1.1-1.1-1.1z"/><path class="st6" d="M30.9 0H1.1C.5 0 0 .5 0 1.1v17.8c0 .6.5 1.1 1.1 1.1h29.8c.6 0 1.1-.5 1.1-1.1V1.1c0-.6-.5-1.1-1.1-1.1zm.3 18.9c0 .2-.1.3-.3.3H1.1c-.2 0-.3-.1-.3-.3V1.1c0-.2.1-.3.3-.3h29.8c.2 0 .3.1.3.3v17.8z"/><path class="st16" d="M16.1 8.5h-.8c-.1 0-.3.1-.4.3 0 0-.9 1.6-1 1.8-.1.1-.1 0-.1 0l-.3-1.8c0-.1-.2-.3-.4-.3h-.6c-.1 0-.2.1-.2.3 0 0 .4 2.5.5 3.1v.4l-.6 1c-.1.1 0 .3.1.3h.7c.1 0 .3-.1.4-.3L16 8.9c.1 0 .3-.4.1-.4zm-7.6-.4c-.1-.2-.2-.3-.4-.4-.2-.1-.3-.2-.6-.2-.2 0-.5-.1-.8-.1H5.3c-.1 0-.3.1-.3.3l-.9 4c0 .1.1.3.2.3H5c.1 0 .3-.1.3-.3l.2-1c0-.1.2-.2.3-.2H6c.8 0 1.4-.2 1.9-.5.4-.3.7-.8.7-1.3 0-.2 0-.4-.1-.6zM7.1 9.4c-.2.2-.5.2-.9.2h-.1c-.1 0-.2-.1-.2-.3l.2-.9c0-.1.2-.3.3-.3h.2c.3 0 .4 0 .6.1.1.1.2.2.2.4 0 .5-.2.7-.3.8zm4.5-.7c-.2-.1-.6-.2-1.2-.2-.3 0-.5 0-.8.1-.2 0-.2 0-.3.1-.2-.1-.3.2-.3.2v.3c0 .2.1.2.1.2.1 0 .2-.1.4-.1s.4-.1.6-.1c.3 0 .5 0 .6.1.1.1.2.2.2.3v.1s0 .1-.1.1c-.4 0-.6.1-1 .1-.3 0-.6.1-.8.2-.2.1-.4.3-.6.4-.1.2-.2.4-.2.7 0 .3.1.5.3.6.2.2.4.2.7.2h.4c.1 0 .2-.1.3-.1.1 0 .2-.1.3-.2.1-.1.2-.1.2-.2v.1c0 .1 0 .2.2.2h.6c.1 0 .3-.1.3-.2l.5-1.9v-.4c0-.3-.1-.5-.4-.6zm-1 2.3l-.1.1c-.1.1-.2.1-.3.1-.1 0-.2.1-.3.1-.2 0-.3 0-.4-.1-.1 0-.1-.1-.1-.2s0-.2.1-.3c.1-.1.2-.1.3-.2.1 0 .3-.1.4-.1.2 0 .4-.1.5-.1 0 0 .1 0 0 .1 0 .1-.1.5-.1.6z"/><path class="st17" d="M23.6 8.7c-.3-.1-.6-.2-1.2-.2-.3 0-.5 0-.8.1-.2 0-.2 0-.3.1-.3-.1-.3.2-.3.2l-.1.3c0 .2.1.2.1.2.1 0 .2-.1.4-.1s.4-.1.6-.1c.3 0 .5 0 .6.1.1.1.2.2.2.3v.1s0 .1-.1.1c-.4 0-.6.1-1 .1-.3 0-.6.1-.8.2-.2.1-.4.3-.6.4-.1.2-.2.4-.2.7 0 .3.1.5.3.6.2.2.4.2.7.2h.4c.1 0 .2-.1.3-.1.1 0 .2-.1.3-.2.1-.1.2-.1.2-.2v.1c0 .1 0 .2.2.2h.6c.1 0 .3-.1.3-.2l.5-2.1v-.4c.1-.1-.1-.3-.3-.4zM22.5 11l-.1.1c-.1.1-.2.1-.3.1-.1 0-.2.1-.3.1-.2 0-.3 0-.4-.1-.1 0-.1-.1-.1-.2s0-.2.1-.3c.1-.1.2-.1.3-.2.1 0 .3-.1.4-.1.2 0 .4-.1.5-.1 0 0 .1 0 0 .1.1.1 0 .5-.1.6zm-2.1-2.9c-.1-.2-.2-.3-.4-.4-.2-.1-.4-.2-.6-.2-.2 0-.5-.1-.8-.1h-1.4c-.1 0-.3.1-.3.3l-.9 4c0 .1.1.3.2.3h.7c.1 0 .3-.1.3-.2l.2-1c0-.1.2-.3.3-.2h.3c.8 0 1.4-.2 1.9-.5.4-.3.7-.8.7-1.3-.1-.3-.1-.5-.2-.7zM19 9.4c-.2.1-.5.2-.8.2H18c-.1 0-.2-.1-.2-.3l.2-.8c0-.1.2-.3.3-.2h.2c.3 0 .4 0 .6.1.1.1.2.2.2.4 0 .3-.1.5-.3.6zm7.1-1.7c0-.1-.1-.2-.2-.2h-.6c-.1 0-.2.1-.3.2v.2l-.8 3.7v.2c0 .1 0 .2.2.2h.6c.1 0 .2-.1.3-.2l.8-4.1z"/></svg>